<?xml version="1.0" standalone="no"?>
<!DOCTYPE svg PUBLIC "-//W3C//DTD SVG 20010904//EN"
 "http://www.w3.org/TR/2001/REC-SVG-20010904/DTD/svg10.dtd">
<svg version="1.0" xmlns="http://www.w3.org/2000/svg"
 width="176.000000pt" height="180.000000pt" viewBox="0 0 176.000000 180.000000"
 preserveAspectRatio="xMidYMid meet">
<metadata>
Created by potrace 1.10, written by Peter Selinger 2001-2011
</metadata>
<g transform="translate(0.000000,180.000000) scale(0.100000,-0.100000)"
fill="#000000" stroke="none">
<path d="M20 900 l0 -880 868 0 867 0 0 880 0 880 -867 0 -868 0 0 -880z
m1705 0 l0 -845 -824 -3 c-551 -1 -828 1 -835 8 -7 7 -10 289 -11 840 0 728 2
832 15 840 9 6 329 9 835 7 l820 -2 0 -845z"/>
<path d="M830 568 c-14 -6 -39 -17 -57 -25 -17 -7 -41 -25 -51 -38 -11 -14
-27 -25 -35 -25 -10 0 -13 -7 -10 -20 3 -11 1 -20 -4 -20 -9 0 -26 28 -37 62
-14 45 -161 74 -227 46 -23 -10 -27 -19 -33 -71 -3 -33 -6 -108 -6 -167 0
-100 2 -109 25 -134 22 -24 31 -26 100 -26 42 0 86 5 97 11 24 13 78 69 78 81
0 5 5 8 10 8 6 0 10 -4 10 -9 0 -19 48 -61 92 -81 56 -24 157 -18 200 12 27
19 28 19 55 -1 36 -26 102 -35 150 -21 44 12 93 52 93 75 0 22 5 19 48 -26 34
-35 48 -42 105 -52 73 -12 125 -2 171 34 29 23 37 79 11 79 -8 0 -15 8 -15 18
0 24 -57 26 -63 1 -4 -13 -15 -17 -51 -17 -25 0 -46 3 -46 8 0 4 -10 10 -21
13 -17 5 -20 11 -15 31 4 15 2 26 -4 26 -5 0 -10 7 -10 15 0 8 6 14 13 13 7
-2 11 6 9 20 -2 14 4 29 15 38 22 16 85 18 100 3 12 -12 43 -6 43 8 0 17 -63
43 -102 43 -34 0 -46 -6 -74 -36 -30 -32 -34 -41 -34 -92 0 -45 5 -63 23 -83
48 -56 116 -66 161 -24 27 25 50 25 60 -2 8 -20 1 -29 -36 -47 -19 -10 -57
-16 -99 -16 -64 0 -69 2 -107 38 -48 44 -62 76 -62 140 0 68 48 140 108 163
54 21 173 0 194 -34 4 -6 0 -19 -9 -29 -21 -23 -13 -40 11 -22 24 17 25 66 2
89 -20 21 -97 45 -141 45 -38 0 -132 -45 -148 -71 -7 -11 -18 -19 -25 -19 -9
0 -11 -7 -7 -20 4 -11 2 -20 -4 -20 -6 0 -11 -11 -11 -24 0 -30 -22 -50 -37
-35 -6 6 -33 22 -59 35 l-49 24 38 -4 c50 -6 109 4 104 18 -2 6 -17 10 -34 8
-17 -2 -34 1 -38 7 -11 18 -80 13 -98 -7 -10 -10 -17 -23 -17 -29 0 -18 34
-41 78 -53 54 -14 102 -62 102 -102 0 -17 -12 -44 -27 -64 -27 -33 -30 -34
-96 -34 -58 0 -72 4 -94 24 -25 23 -25 46 0 46 15 0 41 39 32 48 -3 4 -10 0
-14 -7 -5 -7 -13 -11 -19 -7 -5 3 -13 -1 -16 -10 -6 -15 -8 -15 -25 0 -19 18
-43 14 -74 -12 -13 -12 -20 -13 -29 -4 -9 9 -16 8 -29 -4 -16 -14 -20 -14 -43
1 -14 10 -23 21 -20 26 3 5 1 9 -4 9 -19 0 -38 75 -22 85 6 4 8 15 5 25 -6 18
31 50 59 50 8 0 16 5 18 11 3 8 20 2 47 -16 36 -22 48 -25 67 -16 18 8 24 8
25 -2 3 -46 8 -61 22 -69 10 -5 17 -16 17 -25 0 -9 6 -13 15 -9 9 3 18 -1 21
-9 4 -8 23 -18 44 -21 27 -5 37 -10 33 -20 -6 -16 -30 -19 -35 -3 -4 13 -38 1
-38 -13 0 -17 33 -37 60 -37 40 0 62 22 58 60 -3 29 -8 33 -54 48 -28 9 -62
24 -76 33 -51 34 -37 133 22 158 51 21 170 0 170 -30 0 -6 5 -10 10 -10 6 0
10 7 10 15 0 21 -50 64 -73 65 -10 0 -27 5 -38 11 -15 7 -24 7 -35 -2 -8 -6
-14 -9 -14 -5 0 12 -71 -24 -88 -44 -17 -20 -17 -20 -53 12 -22 21 -46 33 -65
34 -16 0 -36 3 -44 7 -8 3 -26 1 -40 -5z m-231 -72 c29 -30 32 -93 4 -114 -16
-11 -15 -14 10 -38 24 -22 28 -32 25 -72 -3 -40 -8 -49 -37 -69 -28 -19 -47
-23 -112 -23 -68 0 -79 2 -80 18 -5 130 -2 323 6 326 6 2 44 2 85 0 63 -3 78
-7 99 -28z m357 18 c21 -10 34 -23 34 -35 0 -31 -24 -32 -65 -5 -46 31 -63 32
-112 5 -59 -32 -73 -56 -73 -122 0 -69 21 -106 75 -132 44 -20 105 -13 131 16
21 23 54 25 54 4 0 -29 -48 -62 -100 -69 -123 -16 -205 53 -205 174 0 78 31
133 94 166 35 19 125 18 167 -2z"/>
<path d="M451 430 l-1 -50 53 0 c59 0 77 12 77 50 0 38 -18 50 -76 50 l-51 0
-2 -50z"/>
<path d="M453 280 l-1 -60 52 0 c64 0 96 20 96 60 0 40 -32 60 -96 60 l-51 0
0 -60z m81 14 c22 -8 8 -34 -20 -34 -23 0 -32 18 -17 33 8 9 17 9 37 1z"/>
</g>
</svg>
