<?xml version="1.0" standalone="no"?>
<!DOCTYPE svg PUBLIC "-//W3C//DTD SVG 20010904//EN"
 "http://www.w3.org/TR/2001/REC-SVG-20010904/DTD/svg10.dtd">
<svg version="1.0" xmlns="http://www.w3.org/2000/svg"
 width="300.000000pt" height="304.000000pt" viewBox="0 0 300.000000 304.000000"
 preserveAspectRatio="xMidYMid meet">
<metadata>
Created by potrace 1.10, written by Peter Selinger 2001-2011
</metadata>
<g transform="translate(0.000000,304.000000) scale(0.100000,-0.100000)"
fill="#000000" stroke="none">
<path d="M1374 2955 c-4 -9 -2 -21 4 -27 15 -15 44 -1 40 19 -4 23 -36 29 -44
8z"/>
<path d="M1486 2848 c-3 -29 -6 -77 -6 -105 0 -46 3 -53 20 -53 17 0 19 8 22
77 3 73 5 78 31 93 27 14 29 14 46 -7 15 -18 18 -34 13 -93 -4 -66 -4 -70 17
-70 20 0 21 5 21 84 0 79 -2 86 -26 105 -32 25 -52 26 -82 5 -20 -14 -22 -14
-22 0 0 9 -6 16 -14 16 -9 0 -15 -18 -20 -52z"/>
<path d="M1384 2838 c3 -29 6 -74 6 -100 0 -42 3 -48 21 -48 21 0 22 3 16 68
-4 37 -7 82 -7 100 0 26 -4 32 -21 32 -20 0 -21 -4 -15 -52z"/>
<path d="M1224 2870 c-12 -5 -29 -19 -38 -32 -13 -18 -16 -19 -16 -5 0 11 -8
17 -21 17 -16 0 -19 -4 -14 -17 4 -10 18 -72 32 -138 15 -66 27 -121 28 -123
1 -1 10 0 19 4 12 5 16 14 12 30 -19 76 -21 70 27 66 39 -3 47 0 67 25 57 73
-16 205 -96 173z m61 -54 c25 -37 22 -86 -5 -108 -29 -24 -36 -23 -65 7 -27
27 -35 91 -13 113 21 21 66 14 83 -12z"/>
<path d="M1751 2856 c-55 -30 -70 -125 -26 -166 20 -18 32 -22 64 -17 34 4 39
2 34 -12 -18 -50 -53 -62 -103 -36 -18 9 -31 11 -35 5 -10 -16 3 -29 45 -41
48 -15 85 -6 106 26 25 38 65 218 51 227 -6 4 -14 2 -18 -4 -4 -6 -14 -3 -28
11 -24 24 -55 26 -90 7z m79 -36 c24 -24 25 -39 6 -84 -16 -38 -45 -52 -76
-36 -52 28 -23 138 38 140 6 0 21 -9 32 -20z"/>
<path d="M2041 2728 l-74 -111 24 -18 24 -18 42 67 c24 37 48 79 55 95 14 29
35 38 23 10 -12 -28 -64 -197 -62 -199 36 -27 43 -23 122 56 44 44 81 78 83
75 2 -2 -13 -32 -33 -67 -21 -35 -47 -77 -57 -95 l-19 -32 28 -14 28 -15 62
120 c35 66 63 123 63 127 0 4 -16 15 -35 24 l-36 17 -69 -70 c-39 -38 -70 -66
-70 -62 0 4 9 32 19 62 11 30 22 71 26 90 6 31 3 37 -23 53 -17 9 -34 17 -39
16 -4 0 -41 -50 -82 -111z"/>
<path d="M774 2786 c-6 -15 132 -256 146 -256 25 0 17 30 -33 113 -30 51 -62
107 -71 125 -18 34 -33 41 -42 18z"/>
<path d="M967 2789 c-29 -17 -49 -66 -41 -104 13 -69 77 -109 135 -85 53 22
73 85 44 140 -28 54 -91 76 -138 49z m92 -45 c37 -47 18 -124 -30 -124 -25 0
-69 57 -69 90 0 60 62 81 99 34z"/>
<path d="M685 2615 c-32 -31 -33 -81 -2 -126 40 -60 99 -64 160 -9 25 23 29
31 20 41 -10 10 -17 7 -36 -13 -13 -14 -33 -29 -45 -32 -21 -7 -62 8 -62 22 0
4 23 25 50 45 28 21 50 41 50 46 0 18 -53 51 -82 51 -17 0 -39 -10 -53 -25z
m83 -18 c8 -10 3 -19 -23 -40 -19 -15 -39 -27 -44 -27 -15 0 -14 53 1 68 16
16 53 15 66 -1z"/>
<path d="M2411 2626 c-16 -19 -6 -36 20 -36 15 0 20 6 17 22 -4 27 -21 33 -37
14z"/>
<path d="M1375 2569 c-348 -44 -667 -286 -806 -609 -140 -327 -108 -683 88
-978 366 -551 1158 -615 1607 -131 197 213 287 465 273 759 -29 593 -564 1034
-1162 959z m310 -40 c391 -66 710 -370 800 -763 60 -265 -5 -581 -164 -795
-99 -132 -288 -289 -387 -321 -21 -7 -43 -16 -49 -20 -15 -12 -150 -50 -213
-61 -77 -13 -244 -12 -327 1 -189 30 -431 158 -550 291 -76 86 -91 104 -128
165 -100 166 -138 292 -145 484 -7 194 20 325 100 485 139 280 420 487 723
534 132 21 217 21 340 0z"/>
<path d="M1390 2480 c-36 -5 -77 -13 -92 -19 -16 -6 -28 -8 -28 -6 0 5 -112
-36 -168 -62 -163 -75 -339 -246 -420 -408 -112 -222 -137 -443 -76 -680 37
-142 134 -306 247 -418 280 -275 691 -348 1052 -186 132 59 284 186 378 316
168 232 213 593 108 863 -68 174 -202 344 -353 448 -177 122 -421 179 -648
152z m355 -55 c33 -9 103 -37 155 -61 324 -153 516 -459 514 -819 -1 -213 -63
-392 -191 -553 -166 -210 -401 -328 -674 -339 -206 -9 -366 35 -535 146 -193
127 -321 308 -380 537 -23 90 -25 112 -21 244 5 159 27 251 89 375 121 241
360 424 628 481 88 18 333 12 415 -11z"/>
<path d="M1915 1471 c-46 -21 -79 -54 -94 -94 -20 -51 -15 -57 39 -57 41 0 50
3 50 18 1 40 62 79 104 66 30 -9 66 -45 66 -66 0 -15 8 -18 50 -18 44 0 50 3
50 20 0 50 -60 119 -119 139 -49 16 -100 13 -146 -8z m39 -35 c-17 -8 -42 -28
-56 -46 -14 -18 -28 -28 -32 -22 -9 15 40 70 67 75 44 9 51 6 21 -7z m152 -29
c16 -19 22 -33 15 -35 -6 -2 -21 8 -32 21 -11 14 -28 29 -39 32 -29 9 -25 23
5 17 14 -2 37 -18 51 -35z"/>
<path d="M1280 1464 c-61 -26 -110 -86 -110 -134 0 -17 6 -20 44 -20 39 0 45
3 57 31 18 46 67 64 115 44 23 -10 40 -25 47 -45 10 -28 15 -30 59 -30 32 0
48 4 48 13 -1 21 -36 91 -56 109 -52 46 -140 60 -204 32z m24 -47 c-11 -5 -31
-21 -46 -35 -15 -14 -31 -22 -35 -19 -8 9 36 57 62 67 27 10 42 0 19 -13z
m146 -6 c14 -10 27 -29 28 -42 3 -22 1 -21 -35 14 -21 20 -44 37 -51 37 -7 0
-12 5 -12 11 0 13 37 3 70 -20z"/>
<path d="M1498 1085 c-9 -9 11 -64 34 -98 51 -73 188 -90 263 -33 34 26 74 93
75 124 0 8 -17 12 -50 12 -43 0 -50 -3 -50 -19 0 -11 -14 -31 -32 -46 -26 -22
-39 -26 -66 -21 -41 6 -70 30 -74 60 -2 17 -11 22 -48 24 -25 2 -49 0 -52 -3z
m112 -85 c26 -23 38 -40 30 -40 -27 0 -89 50 -90 73 0 14 16 5 60 -33z m200
26 c0 -26 -82 -78 -97 -62 -3 3 6 10 20 15 14 6 33 22 43 36 18 28 34 33 34
11z"/>
<path d="M2312 2505 c-58 -69 -70 -96 -39 -94 7 0 40 34 74 74 46 54 59 75 50
84 -6 6 -13 11 -16 11 -4 0 -34 -34 -69 -75z"/>
<path d="M581 2526 c-11 -13 -7 -26 28 -87 23 -39 41 -73 41 -75 0 -2 -36 14
-79 36 -69 34 -81 37 -91 24 -7 -8 -11 -16 -9 -18 2 -2 48 -22 101 -44 128
-53 134 -47 70 83 -41 84 -50 95 -61 81z"/>
<path d="M2450 2503 c0 -5 -31 -35 -69 -68 -60 -52 -68 -62 -56 -74 12 -13 21
-8 64 32 51 47 85 59 109 35 23 -23 11 -50 -44 -102 -46 -43 -54 -54 -42 -64
21 -17 138 93 138 131 0 34 -32 67 -66 67 -22 0 -24 2 -14 15 6 8 9 19 5 25
-7 12 -25 14 -25 3z"/>
<path d="M425 2338 c-32 -17 -45 -39 -45 -79 0 -30 7 -43 35 -68 46 -40 75
-47 114 -27 33 18 78 91 61 101 -13 8 -30 -3 -30 -19 0 -21 -45 -56 -71 -56
-38 0 -41 9 -15 44 13 17 31 43 41 59 l17 27 -36 15 c-42 18 -45 18 -71 3z
m63 -35 c-12 -29 -55 -82 -63 -80 -12 4 -19 52 -11 73 3 8 20 14 42 14 19 0
34 -3 32 -7z"/>
<path d="M2544 2286 c-40 -18 -74 -62 -74 -96 0 -27 36 -70 58 -70 14 0 16
-17 2 -22 -5 -2 -6 -9 -1 -16 11 -19 263 132 254 153 -7 20 -8 20 -66 -16 -35
-22 -48 -26 -43 -14 9 24 -21 74 -50 85 -32 13 -42 12 -80 -4z m91 -46 c27
-29 13 -66 -35 -90 -43 -22 -71 -17 -89 18 -30 58 78 123 124 72z"/>
<path d="M265 2171 c-34 -15 -65 -56 -90 -117 -13 -32 -23 -59 -22 -60 3 -3
250 -104 253 -104 8 0 45 97 50 130 8 49 -15 98 -60 128 -38 26 -100 37 -131
23z m94 -75 c38 -20 55 -60 41 -101 l-11 -33 -82 34 c-45 18 -83 37 -84 41 -2
4 6 23 17 41 16 26 26 32 55 32 20 0 48 -6 64 -14z"/>
<path d="M2672 2077 c-6 -7 -13 -29 -15 -48 -5 -43 -13 -59 -32 -59 -17 0 -35
31 -35 59 0 12 -7 21 -15 21 -22 0 -19 -52 6 -84 24 -30 69 -35 90 -10 7 9 15
34 18 57 5 33 10 42 26 42 14 0 23 -10 30 -33 5 -18 14 -31 20 -29 15 6 8 57
-11 78 -20 22 -66 25 -82 6z"/>
<path d="M2800 1839 c-52 -9 -112 -18 -132 -18 -24 -1 -38 -6 -37 -13 0 -7 6
-47 13 -88 11 -71 13 -75 36 -72 14 2 26 5 28 6 1 2 -2 25 -7 52 -5 27 -8 50
-6 52 2 2 51 11 109 19 105 16 106 17 106 44 0 15 -3 29 -7 31 -5 2 -51 -4
-103 -13z"/>
<path d="M170 1784 l0 -37 -21 27 c-17 21 -24 24 -35 15 -21 -17 -17 -26 19
-40 31 -12 31 -12 7 -16 -48 -7 -52 -11 -40 -33 l11 -21 26 21 c30 24 39 20
24 -8 -16 -31 -13 -42 10 -42 19 0 21 4 15 38 l-6 37 25 -30 c23 -28 25 -29
42 -12 17 16 16 18 -15 29 -40 15 -41 28 -2 28 31 0 35 6 24 34 -5 14 -9 13
-32 -4 -30 -24 -36 -21 -23 13 8 20 7 27 -5 31 -24 9 -24 9 -24 -30z"/>
<path d="M2667 1612 c-10 -10 -17 -29 -17 -42 0 -13 7 -32 17 -42 15 -17 15
-18 0 -18 -10 0 -17 -8 -17 -17 0 -16 10 -18 87 -15 74 3 91 7 106 24 19 23
22 69 6 99 -15 29 -28 14 -22 -26 6 -36 -9 -65 -32 -65 -7 0 -15 18 -18 41 -3
22 -13 49 -23 60 -22 24 -66 25 -87 1z m83 -45 c0 -7 3 -22 6 -34 5 -20 2 -23
-19 -23 -48 0 -77 58 -40 79 20 11 53 -3 53 -22z"/>
<path d="M390 1516 c-3 -2 -50 -6 -105 -7 -55 -1 -115 -4 -133 -6 -30 -5 -32
-8 -32 -47 0 -22 5 -58 11 -79 21 -76 88 -102 129 -50 13 17 24 23 28 17 4 -6
17 -16 30 -23 29 -16 68 6 83 47 10 27 0 160 -11 148z m-140 -95 c0 -28 -22
-61 -40 -61 -17 0 -40 32 -40 55 0 23 6 26 68 34 7 0 12 -11 12 -28z m108 -3
c-4 -38 -34 -51 -55 -22 -25 34 -17 54 23 54 34 0 35 -1 32 -32z"/>
<path d="M2650 1418 c0 -10 5 -18 10 -18 6 0 1 -9 -10 -20 -22 -22 -26 -70
-10 -101 14 -26 62 -49 103 -49 68 0 108 62 77 121 -6 10 -9 19 -8 19 2 0 27
-7 57 -15 57 -15 71 -13 71 10 0 8 -15 17 -37 21 -21 3 -86 16 -145 28 -103
21 -108 22 -108 4z m128 -51 c49 -39 27 -97 -36 -97 -50 0 -82 23 -82 60 0 51
71 74 118 37z"/>
<path d="M225 1231 c-81 -34 -79 -151 4 -182 33 -13 86 -1 116 27 19 17 25 33
25 64 0 75 -72 120 -145 91z m102 -43 c24 -32 23 -50 -6 -79 -35 -35 -81 -39
-111 -9 -26 26 -25 46 5 75 27 28 95 35 112 13z"/>
<path d="M2685 1096 c-18 -13 -17 -14 8 -31 36 -23 34 -32 -8 -27 -35 4 -42
-2 -26 -27 7 -10 13 -11 31 -1 29 16 37 5 15 -21 -17 -17 -17 -22 -5 -29 23
-15 30 -12 30 13 0 38 13 40 27 5 13 -30 15 -31 30 -15 16 16 16 18 -5 33 -31
21 -28 31 8 26 26 -4 30 -1 30 18 0 17 -4 21 -17 15 -10 -4 -27 -10 -38 -13
-18 -4 -18 -2 5 22 21 23 22 29 10 36 -23 15 -28 12 -36 -22 l-7 -33 -14 33
c-15 37 -13 36 -38 18z"/>
<path d="M358 1000 c-17 -14 -22 -27 -21 -59 2 -30 -3 -43 -16 -51 -23 -12
-51 15 -51 48 0 13 -6 22 -15 22 -31 0 -5 -90 30 -104 50 -19 82 8 87 74 4 57
33 69 51 21 15 -40 42 -43 32 -3 -14 57 -60 82 -97 52z"/>
<path d="M2526 954 c-7 -19 1 -31 63 -96 25 -27 40 -48 34 -48 -7 0 -42 7 -79
16 -70 16 -94 14 -94 -9 0 -11 26 -18 96 -28 104 -14 124 -27 124 -80 0 -30
27 -47 37 -23 11 30 -16 85 -89 184 -40 54 -76 99 -79 99 -4 1 -10 -6 -13 -15z"/>
<path d="M463 868 c5 -19 -4 -29 -54 -61 -55 -34 -60 -40 -57 -69 2 -17 11
-36 20 -42 21 -13 35 -1 19 17 -17 22 -6 39 51 76 l51 33 17 -22 c10 -14 22
-20 29 -15 9 5 8 12 -6 27 -17 19 -17 21 6 39 19 15 21 23 12 32 -9 9 -16 8
-33 -2 -16 -10 -23 -10 -26 -2 -2 6 -11 11 -19 11 -11 0 -14 -7 -10 -22z"/>
<path d="M2407 767 c-14 -21 -15 -21 -34 -4 -24 21 -29 21 -37 1 -4 -11 1 -22
14 -31 16 -11 18 -18 10 -28 -8 -10 -8 -15 1 -20 6 -4 15 -2 19 5 6 10 22 1
61 -33 59 -52 88 -58 119 -25 26 28 10 50 -18 25 -18 -17 -22 -15 -76 26 -48
38 -54 46 -41 57 8 7 15 18 15 26 0 23 -17 24 -33 1z"/>
<path d="M505 708 c-91 -72 -47 -186 69 -179 10 0 33 16 52 35 45 45 47 95 5
137 -36 36 -86 39 -126 7z m105 -28 c28 -28 25 -57 -9 -91 -33 -32 -71 -38
-95 -13 -31 30 -15 83 32 108 36 20 48 20 72 -4z"/>
<path d="M2244 705 c-4 -9 -2 -21 4 -27 15 -15 44 -1 40 19 -4 23 -36 29 -44
8z"/>
<path d="M2303 658 c-8 -10 6 -31 58 -87 61 -66 71 -73 84 -60 13 13 6 23 -58
87 -57 57 -76 70 -84 60z"/>
<path d="M2217 584 c-39 -21 -52 -60 -31 -92 15 -23 20 -24 69 -18 33 4 56 2
60 -4 12 -19 -6 -48 -35 -59 -20 -6 -28 -15 -24 -24 7 -19 37 -11 69 19 27 25
32 53 14 86 -9 17 -19 19 -67 16 -52 -3 -57 -1 -60 19 -3 17 3 24 22 29 14 3
26 12 26 19 0 22 -13 24 -43 9z"/>
<path d="M685 509 c-48 -70 -54 -84 -42 -96 12 -12 19 -6 50 41 44 66 64 79
98 63 36 -18 34 -37 -12 -104 -37 -56 -43 -83 -19 -83 19 0 90 119 90 149 0
41 -33 74 -70 69 -22 -3 -26 -1 -23 13 3 9 0 20 -5 23 -6 3 -36 -31 -67 -75z"/>
<path d="M2093 479 c-5 -27 -8 -30 -18 -16 -7 10 -16 12 -24 7 -11 -6 -2 -28
35 -94 27 -47 51 -86 54 -86 3 0 11 4 18 9 11 6 7 19 -16 57 -43 71 -47 89
-22 114 22 22 19 40 -6 40 -8 0 -17 -13 -21 -31z"/>
<path d="M1017 400 c-15 -49 -27 -102 -27 -117 0 -38 25 -72 66 -89 86 -36
129 -3 174 132 18 52 30 97 29 99 -2 2 -16 6 -30 10 -26 6 -28 4 -49 -62 -34
-107 -41 -123 -62 -134 -24 -13 -68 12 -68 39 0 10 13 57 28 106 l29 88 -24 9
c-13 5 -27 9 -31 9 -4 0 -20 -40 -35 -90z"/>
<path d="M1891 394 c-25 -21 -31 -33 -31 -66 0 -67 40 -117 92 -118 35 0 98
30 98 46 0 20 -17 25 -30 10 -19 -24 -68 -30 -95 -12 -14 9 -25 20 -25 25 0 5
29 19 65 32 38 13 65 29 65 37 0 23 -57 72 -83 72 -14 0 -39 -12 -56 -26z m83
-23 c17 -19 16 -20 -29 -40 -26 -12 -49 -21 -51 -21 -11 0 -2 46 13 62 21 23
45 23 67 -1z"/>
<path d="M1534 395 c-4 -9 -2 -21 4 -27 15 -15 44 -1 40 19 -4 23 -36 29 -44
8z"/>
<path d="M1778 362 c-13 -3 -18 -20 -24 -83 -3 -43 -9 -79 -13 -79 -3 0 -23
32 -44 71 -25 44 -44 69 -53 67 -23 -5 -19 -17 33 -105 37 -64 53 -82 68 -80
17 2 23 16 37 92 20 103 20 122 -4 117z"/>
<path d="M1297 244 c-7 -101 -5 -114 19 -114 10 0 14 14 14 58 0 68 17 106 48
110 45 7 55 -15 49 -100 -6 -71 -5 -78 12 -78 16 0 20 11 26 74 6 74 -2 110
-29 128 -16 11 -74 10 -81 -2 -9 -14 -26 -13 -22 2 1 6 -5 13 -14 15 -13 3
-17 -11 -22 -93z"/>
<path d="M1544 269 c3 -34 6 -79 6 -100 0 -33 3 -39 21 -39 20 0 21 4 15 53
-3 28 -6 73 -6 100 0 41 -3 47 -21 47 -21 0 -22 -3 -15 -61z"/>
</g>
</svg>
