<?xml version="1.0" standalone="no"?>
<!DOCTYPE svg PUBLIC "-//W3C//DTD SVG 20010904//EN"
 "http://www.w3.org/TR/2001/REC-SVG-20010904/DTD/svg10.dtd">
<svg version="1.0" xmlns="http://www.w3.org/2000/svg"
 width="300.000000pt" height="342.000000pt" viewBox="0 0 300.000000 342.000000"
 preserveAspectRatio="xMidYMid meet">
<metadata>
Created by potrace 1.10, written by Peter Selinger 2001-2011
</metadata>
<g transform="translate(0.000000,342.000000) scale(0.100000,-0.100000)"
fill="#000000" stroke="none">
<path d="M1400 3258 c-19 -4 -50 -5 -68 -2 -37 6 -72 -2 -72 -17 0 -6 15 -9
33 -8 53 5 59 -5 51 -78 -5 -53 -4 -65 7 -61 10 3 14 24 14 74 l0 69 35 3 c36
3 58 16 43 24 -4 3 -24 1 -43 -4z"/>
<path d="M1510 3242 c-19 -9 -41 -29 -50 -44 -13 -25 -13 -31 0 -55 31 -55
108 -56 135 -2 20 38 12 83 -18 104 -27 19 -25 19 -67 -3z m55 -24 c49 -22 20
-98 -37 -98 -20 0 -58 34 -58 50 0 14 46 60 59 60 6 0 22 -5 36 -12z"/>
<path d="M1626 3203 c-4 -32 -10 -73 -13 -90 -3 -20 -1 -33 5 -33 6 0 12 12
14 27 5 46 27 38 54 -21 17 -36 30 -53 39 -50 10 4 8 13 -11 41 -31 45 -30 61
1 75 51 23 17 79 -61 102 -20 6 -22 2 -28 -51z m74 7 c27 -27 25 -38 -5 -46
-35 -9 -55 2 -55 29 0 42 27 50 60 17z"/>
<path d="M1126 3241 c-4 -5 -1 -11 6 -13 9 -3 9 -21 -3 -77 -9 -39 -13 -74 -9
-76 11 -7 20 7 20 31 0 19 7 24 37 30 37 7 39 6 70 -43 10 -17 11 -17 18 0 5
12 -8 37 -46 87 -49 65 -79 84 -93 61z m68 -84 c-23 -13 -44 0 -44 26 0 37 12
40 36 10 19 -24 20 -29 8 -36z"/>
<path d="M1770 3227 c0 -2 7 -22 16 -43 11 -27 14 -52 10 -87 -5 -38 -4 -48 6
-45 7 3 14 18 16 34 3 19 19 43 50 71 26 23 40 42 32 43 -8 0 -29 -14 -47 -32
-23 -22 -33 -27 -36 -17 -16 56 -24 73 -34 77 -7 2 -13 2 -13 -1z"/>
<path d="M981 3209 c-17 -7 -21 -14 -16 -27 4 -9 13 -46 20 -80 14 -66 20 -80
31 -69 4 4 1 20 -6 37 -18 44 -8 46 32 6 19 -19 47 -38 62 -42 34 -8 76 10 76
32 0 16 -1 16 -18 1 -27 -25 -57 -21 -93 11 l-32 28 27 27 c30 30 33 49 10 71
-17 18 -56 20 -93 5z m87 -31 c4 -20 -42 -53 -63 -44 -18 7 -20 52 -2 60 24
10 62 1 65 -16z"/>
<path d="M867 3169 c-22 -13 -47 -61 -47 -93 0 -30 33 -56 71 -56 71 0 100 89
45 136 -30 26 -42 29 -69 13z m64 -29 c41 -23 7 -100 -44 -100 -48 0 -63 49
-27 88 23 24 41 27 71 12z"/>
<path d="M1962 3090 c-22 -76 -22 -108 -1 -95 5 4 9 20 9 37 0 32 -2 31 61 15
4 -1 8 3 9 8 0 6 -9 12 -22 15 -14 4 -24 15 -26 29 -5 36 11 45 46 27 37 -19
52 -20 52 -3 0 9 -81 47 -101 47 -3 0 -15 -36 -27 -80z"/>
<path d="M675 3096 c-14 -10 -17 -17 -9 -27 6 -8 22 -45 35 -82 22 -64 25 -68
49 -62 34 9 67 31 80 55 8 15 6 24 -10 40 -11 11 -30 20 -42 20 -17 0 -19 3
-10 12 7 7 12 22 12 35 0 20 -5 23 -43 23 -24 0 -52 -6 -62 -14z m85 -13 c0
-10 -11 -26 -24 -35 -22 -16 -24 -16 -34 7 -9 20 -8 26 6 34 27 16 52 13 52
-6z m45 -80 c16 -16 16 -18 -5 -35 -31 -25 -57 -22 -76 8 -15 22 -15 27 -3 35
23 14 66 10 84 -8z"/>
<path d="M2113 3075 c-81 -35 -56 -135 33 -135 66 0 99 89 48 129 -31 24 -38
25 -81 6z m69 -32 c24 -22 23 -60 -2 -73 -33 -18 -73 -8 -89 22 -14 24 -14 28
3 47 23 25 63 27 88 4z"/>
<path d="M540 3025 c-9 -11 -9 -18 3 -29 8 -8 17 -36 20 -61 6 -41 4 -49 -16
-66 -34 -29 -45 -23 -74 36 -15 30 -30 55 -34 55 -18 0 -17 -19 0 -41 10 -13
28 -43 40 -67 l22 -43 34 25 c18 14 40 26 48 26 9 0 12 9 9 29 -7 47 59 81 88
46 16 -19 30 -19 30 -1 0 8 -26 30 -57 49 -95 57 -99 58 -113 42z m76 -40 c16
-13 17 -16 4 -25 -23 -15 -45 -7 -48 18 -4 26 15 29 44 7z"/>
<path d="M2250 3020 c0 -6 -16 -36 -35 -66 -19 -30 -35 -59 -35 -65 0 -20 24
-3 30 21 10 44 26 32 26 -18 -1 -27 5 -60 13 -74 21 -40 81 -60 81 -27 0 5
-11 9 -24 9 -32 0 -47 21 -53 75 l-6 44 35 -5 c67 -11 90 46 37 90 -31 26 -69
35 -69 16z m60 -34 c41 -45 -1 -78 -49 -38 -20 16 -21 18 -6 40 20 28 26 28
55 -2z"/>
<path d="M1486 2903 c-3 -42 -5 -77 -4 -79 2 -1 25 -5 52 -9 39 -6 48 -5 44 6
-2 8 -21 15 -41 17 -42 4 -43 8 -22 77 15 50 13 65 -9 65 -9 0 -15 -24 -20
-77z"/>
<path d="M1289 2954 c-5 -6 -12 -33 -15 -60 -11 -81 -17 -82 -62 -10 -38 61
-65 86 -78 73 -3 -3 15 -34 40 -69 25 -34 53 -74 62 -86 9 -13 20 -20 24 -15
5 4 17 41 27 82 26 103 43 104 43 4 l0 -78 71 -2 c87 -2 92 20 5 25 -53 3 -57
5 -54 25 3 19 9 22 53 22 69 0 73 19 5 25 -50 5 -55 7 -55 29 0 24 2 25 59 22
44 -2 57 1 54 10 -6 17 -165 19 -179 3z"/>
<path d="M1660 2939 c-37 -15 -70 -50 -70 -75 0 -32 54 -74 94 -74 48 0 86 33
86 75 0 58 -54 95 -110 74z m85 -49 c19 -20 19 -20 -1 -47 -28 -38 -77 -43
-110 -12 -31 29 -30 43 3 69 32 25 76 21 108 -10z"/>
<path d="M1005 2923 c-42 -6 -49 -16 -32 -49 8 -16 18 -49 22 -72 l7 -44 47 7
c88 12 111 17 111 26 0 4 -33 7 -72 6 -67 -2 -73 0 -73 18 0 16 8 21 43 23 29
2 42 8 42 18 0 11 -12 14 -52 12 -42 -2 -53 0 -53 12 0 10 16 17 53 23 28 5
52 13 52 18 0 9 -38 10 -95 2z"/>
<path d="M1800 2881 c0 -27 -9 -68 -19 -92 -14 -31 -17 -46 -8 -51 17 -10 26
-1 33 39 l7 36 57 -6 c64 -7 87 6 75 43 -8 26 -41 48 -100 65 l-45 14 0 -48z
m110 -32 c0 -26 -12 -30 -53 -18 -38 10 -48 34 -26 56 16 16 79 -15 79 -38z"/>
<path d="M819 2881 l-27 -6 23 -78 c12 -43 27 -83 32 -88 15 -15 111 56 119
88 18 69 -50 107 -147 84z m119 -34 c22 -22 7 -64 -31 -87 -17 -11 -37 -20
-43 -20 -18 0 -44 102 -31 119 14 17 84 9 105 -12z"/>
<path d="M1955 2813 c-15 -37 -30 -74 -33 -82 -12 -31 21 3 34 35 19 46 30 43
38 -11 4 -25 9 -45 12 -45 3 0 20 11 38 25 51 39 58 34 51 -37 -5 -45 -4 -59
4 -48 6 8 13 40 16 70 4 30 9 63 11 73 7 24 -13 21 -48 -8 -16 -14 -36 -25
-44 -25 -19 0 -36 45 -32 84 6 54 -19 38 -47 -31z"/>
<path d="M610 2779 c-13 -6 -32 -17 -42 -26 -16 -14 -15 -18 13 -67 16 -29 29
-57 29 -63 0 -6 -18 -23 -41 -39 -50 -35 -66 -27 -95 44 -24 60 -29 66 -44 57
-11 -7 13 -54 65 -132 l22 -33 46 33 c26 17 47 37 47 42 0 6 15 16 34 23 54
20 86 56 86 97 0 63 -52 91 -120 64z m78 -21 c17 -17 15 -68 -5 -90 -28 -31
-58 -23 -78 21 -26 58 -15 73 56 80 8 0 20 -4 27 -11z"/>
<path d="M2170 2768 c0 -7 -13 -40 -29 -73 l-28 -61 46 -27 c25 -15 56 -34 68
-42 12 -10 24 -12 27 -6 3 5 -17 23 -44 40 -56 34 -69 54 -50 76 10 12 16 11
44 -10 38 -29 46 -31 46 -11 0 8 -16 23 -35 35 -34 19 -45 44 -26 55 5 3 19
-3 32 -13 42 -32 69 -43 69 -29 0 7 -24 28 -54 46 -60 36 -66 37 -66 20z"/>
<path d="M2304 2619 c-22 -41 -40 -77 -42 -81 -2 -5 4 -8 13 -8 9 0 24 19 36
47 24 56 29 51 55 -49 19 -71 35 -85 55 -45 6 12 25 36 41 54 29 30 31 53 5
53 -7 0 -22 -18 -35 -40 -12 -22 -26 -40 -30 -40 -10 0 -42 99 -42 131 0 13
-4 30 -9 38 -7 10 -19 -5 -47 -60z"/>
<path d="M385 2661 c-3 -5 1 -16 9 -23 8 -8 28 -43 46 -79 38 -76 36 -73 50
-64 7 4 3 16 -10 35 -11 16 -32 54 -45 85 -24 53 -37 66 -50 46z"/>
<path d="M340 2618 c0 -7 9 -24 20 -38 26 -33 25 -55 -2 -74 -32 -23 -44 -20
-58 13 -7 18 -17 28 -25 25 -10 -4 -3 -22 26 -67 21 -34 39 -68 39 -74 0 -7 7
-13 15 -13 8 0 15 6 15 14 0 7 -7 19 -15 26 -22 18 -18 36 11 59 34 27 42 26
54 -4 5 -14 16 -25 25 -25 21 0 19 6 -21 61 -20 27 -39 61 -43 77 -8 27 -41
45 -41 20z"/>
<path d="M2495 2561 c-3 -5 10 -22 30 -37 19 -14 35 -34 35 -44 0 -10 -21 -34
-46 -55 -33 -28 -43 -40 -34 -49 8 -8 22 2 54 37 24 26 50 47 57 47 7 0 28
-14 46 -32 18 -17 36 -29 40 -25 3 4 -29 40 -72 80 -89 82 -101 91 -110 78z"/>
<path d="M779 2508 c-1 -7 -1 -33 1 -58 2 -40 1 -43 -15 -30 -9 7 -23 26 -31
42 -17 33 -38 27 -31 -8 4 -20 1 -23 -14 -19 -29 9 -24 -31 6 -61 l26 -26 -3
-391 c-3 -355 -5 -394 -21 -418 -25 -37 -58 -49 -140 -49 -140 0 -201 -37
-237 -144 -11 -35 -25 -85 -29 -112 -5 -27 -11 -56 -15 -65 -4 -9 1 -25 13
-40 l20 -24 1 66 c0 36 8 90 17 120 l17 54 8 -60 c4 -33 10 -66 13 -73 6 -15
-22 -309 -36 -382 -19 -97 -20 -95 31 -95 42 0 45 2 48 28 3 24 7 27 43 27 21
0 39 3 39 8 0 4 -7 39 -15 77 -8 39 -15 123 -15 187 l0 118 38 24 c40 27 152
60 162 48 11 -13 -10 -365 -26 -432 -14 -60 -14 -65 2 -77 16 -11 79 -9 93 3
2 2 -2 23 -8 48 -23 91 -6 396 22 396 7 0 7 -57 2 -167 -4 -93 -8 -184 -9
-203 -1 -34 0 -35 37 -34 21 1 40 4 43 6 2 3 -2 29 -9 59 -12 44 -13 167 -10
654 2 330 6 624 9 653 5 46 9 54 32 63 15 5 35 14 44 19 10 6 31 10 48 10 31
0 50 22 50 58 0 30 -31 51 -93 63 l-57 12 0 38 c0 21 5 41 10 44 18 11 10 43
-12 49 -35 9 -48 7 -49 -6z m31 -115 c0 -12 5 -23 12 -25 14 -5 19 -48 5 -48
-5 0 -7 9 -4 20 6 22 -8 28 -16 8 -7 -23 5 -38 30 -38 22 0 25 4 20 26 -4 23
-3 25 27 18 61 -13 76 -23 76 -48 0 -33 -17 -42 -41 -20 -15 13 -18 14 -14 3
6 -15 -50 -49 -80 -49 -38 0 -40 -25 -45 -680 -3 -349 -2 -651 2 -670 5 -23 3
-37 -5 -42 -24 -15 -29 -7 -22 40 13 94 11 320 -3 334 -10 10 -15 10 -22 -2
-20 -32 -33 -120 -36 -250 -3 -107 -7 -136 -19 -138 -15 -3 -14 50 4 316 4 57
4 108 0 114 -19 31 -206 -30 -231 -75 -9 -18 -7 -219 5 -311 1 -10 -4 -21 -10
-23 -10 -4 -13 26 -14 124 -1 137 -10 225 -21 207 -9 -14 -28 -216 -28 -301 0
-49 -3 -63 -15 -63 -8 0 -15 2 -15 4 0 2 7 72 16 157 19 186 12 394 -13 385
-12 -5 -11 1 4 26 32 54 74 72 190 78 82 5 108 10 130 26 57 43 58 45 61 472
l3 393 -25 20 c-30 23 -35 45 -8 31 9 -5 34 -13 56 -16 38 -7 38 -7 32 21 -5
21 -4 24 4 13 5 -8 10 -25 10 -37z m-391 -1391 c-1 -48 -4 -112 -9 -142 -5
-42 -8 -21 -9 93 -1 97 2 146 9 142 6 -3 10 -45 9 -93z"/>
<path d="M641 1449 c-14 -5 -30 -8 -38 -5 -7 3 -15 1 -18 -4 -10 -16 49 -11
71 5 22 17 19 18 -15 4z"/>
<path d="M690 1452 c0 -16 25 -32 50 -31 l25 1 -27 10 c-16 5 -28 14 -28 19 0
5 -4 9 -10 9 -5 0 -10 -4 -10 -8z"/>
<path d="M494 1416 c-11 -45 -1 -71 28 -74 23 -3 27 1 33 30 3 18 9 41 11 51
4 14 -1 17 -30 17 -29 0 -37 -4 -42 -24z m56 -15 c0 -30 -26 -49 -43 -32 -16
16 1 61 23 61 15 0 20 -7 20 -29z"/>
<path d="M432 1413 c40 -10 28 -49 -17 -56 -24 -3 -22 -4 13 -6 42 -1 42 -1
42 34 0 32 -3 35 -27 34 -16 -1 -21 -3 -11 -6z"/>
<path d="M582 1387 c-15 -18 -27 -97 -15 -97 6 0 10 10 11 23 0 12 3 33 8 46
7 24 8 24 15 4 4 -11 6 -32 5 -47 -2 -14 1 -26 6 -26 13 0 5 103 -8 107 -6 2
-16 -2 -22 -10z"/>
<path d="M646 1376 c-8 -34 8 -72 34 -79 40 -10 51 2 48 52 -3 45 -4 46 -39
49 -32 3 -37 0 -43 -22z m62 5 c16 -10 10 -66 -6 -65 -7 1 -19 2 -27 3 -9 0
-15 11 -15 29 0 41 17 53 48 33z"/>
<path d="M424 1296 c-9 -35 2 -46 44 -45 35 1 36 2 8 8 -33 7 -46 28 -22 37
25 9 64 -4 69 -24 3 -11 5 -7 6 9 1 30 -14 39 -65 39 -27 0 -35 -5 -40 -24z"/>
<path d="M1948 2513 c-20 -5 -24 -33 -7 -50 6 -6 9 -25 7 -44 -3 -31 -6 -34
-58 -47 -30 -7 -61 -18 -67 -24 -31 -25 -3 -108 31 -95 10 4 32 0 49 -9 18 -9
39 -20 47 -24 8 -4 18 -25 21 -46 12 -68 12 -1305 1 -1347 -11 -43 -4 -51 45
-45 17 2 27 8 25 17 -1 7 -5 101 -8 210 -5 222 8 234 28 26 9 -93 9 -142 0
-206 -14 -94 -10 -101 48 -97 39 3 38 -4 22 123 -6 44 -14 151 -17 238 l-7
157 26 0 c38 0 131 -37 152 -61 17 -19 19 -36 17 -148 -2 -69 -9 -153 -17
-186 -8 -33 -12 -63 -9 -68 3 -5 22 -7 42 -4 36 4 37 4 33 -24 -4 -28 -3 -29
42 -29 51 0 55 9 37 80 -5 19 -16 114 -25 210 -13 146 -13 187 -2 245 l13 70
12 -45 c8 -28 11 -71 8 -112 -5 -52 -3 -68 9 -72 8 -3 14 1 14 8 0 8 5 16 11
18 9 3 9 9 0 25 -6 12 -11 41 -11 65 0 24 -10 76 -22 116 -34 116 -90 152
-235 152 -62 0 -76 3 -101 25 -17 14 -33 38 -36 53 -3 15 -8 197 -11 406 l-5
378 25 20 c28 22 34 68 10 68 -8 0 -15 8 -15 18 0 34 -13 32 -34 -5 -30 -53
-44 -53 -36 0 10 66 2 74 -52 60z m132 -112 c-5 -11 -18 -22 -27 -25 -17 -5
-18 -29 -16 -343 3 -412 7 -477 28 -509 24 -37 74 -54 158 -54 57 0 83 -5 116
-22 46 -25 95 -88 68 -88 -30 0 -31 -299 -1 -507 5 -38 4 -43 -12 -43 -17 0
-19 10 -20 120 -2 142 -12 250 -24 250 -12 0 -23 -152 -19 -249 4 -69 2 -81
-11 -78 -8 2 -13 10 -11 18 2 8 6 82 9 166 l4 152 -46 29 c-52 33 -121 55
-157 50 l-24 -3 4 -135 c2 -74 6 -174 10 -222 6 -86 6 -88 -15 -88 -21 0 -22
3 -13 36 7 23 7 78 -1 165 -15 176 -41 248 -62 174 -9 -30 -1 -326 9 -353 4
-10 0 -13 -13 -10 -13 2 -18 11 -17 28 7 83 1 1257 -7 1303 -10 64 -16 77 -33
77 -28 1 -84 36 -80 50 3 10 0 9 -11 -4 -18 -22 -36 -13 -36 20 0 19 8 28 35
40 48 20 64 18 58 -6 -7 -28 20 -35 51 -14 21 13 24 20 15 30 -14 17 -29 9
-29 -17 0 -10 -4 -19 -8 -19 -13 0 -8 36 7 54 7 8 29 18 50 22 20 4 43 10 51
15 24 14 31 10 20 -10z m279 -1448 l-2 -148 -9 105 c-8 94 -4 190 8 190 2 0 3
-66 3 -147z"/>
<path d="M2047 1464 c5 -29 2 -40 -12 -50 -18 -13 -18 -14 3 -14 19 0 22 5 22
44 0 25 -4 47 -9 51 -6 3 -7 -9 -4 -31z"/>
<path d="M2080 1440 c0 -23 5 -31 25 -36 13 -3 35 -2 48 3 19 6 23 12 16 28
-6 17 -8 17 -8 3 -1 -25 -47 -24 -60 1 -6 10 -7 21 -4 25 3 3 1 6 -5 6 -7 0
-12 -13 -12 -30z"/>
<path d="M2217 1424 c-14 -14 -7 -74 9 -81 22 -8 64 14 64 34 0 15 -2 14 -15
-4 -19 -28 -50 -23 -50 7 0 30 31 51 46 30 9 -13 10 -13 6 0 -4 16 -48 26 -60
14z"/>
<path d="M2302 1398 c-2 -36 16 -58 47 -58 21 0 11 18 -13 24 -19 5 -26 14
-29 39 -4 32 -4 32 -5 -5z"/>
<path d="M2052 1371 c-10 -6 -11 -17 -5 -42 8 -28 14 -35 40 -37 25 -2 33 1
38 18 12 39 -2 70 -33 70 -15 0 -33 -4 -40 -9z m61 -28 c7 -35 -7 -52 -31 -37
-22 14 -28 44 -10 55 23 15 36 10 41 -18z"/>
<path d="M2150 1335 c0 -38 3 -45 20 -45 17 0 20 7 20 45 0 38 -3 45 -20 45
-17 0 -20 -7 -20 -45z"/>
<path d="M2227 1323 c-4 -3 -7 -18 -6 -32 l1 -26 7 25 c8 28 35 38 56 20 11
-9 12 -17 4 -32 -12 -22 -6 -34 10 -23 6 3 11 22 11 41 0 33 -1 34 -38 34 -21
0 -42 -3 -45 -7z"/>
<path d="M2352 1298 c-15 -15 -16 -64 -2 -73 7 -4 9 2 5 18 -4 14 -2 35 5 46
12 24 10 27 -8 9z"/>
<path d="M187 2462 c-27 -30 -40 -77 -28 -101 26 -48 79 -50 139 -5 34 26 43
54 17 54 -8 0 -15 -6 -15 -14 0 -22 -40 -46 -77 -46 -55 0 -66 51 -19 90 17
13 22 40 8 40 -5 0 -16 -8 -25 -18z"/>
<path d="M920 2042 c0 -226 66 -554 141 -704 24 -46 23 -47 -1 -41 -14 4 -20
0 -20 -11 0 -20 -14 -21 -30 -1 -18 21 -22 20 -65 -21 l-39 -36 25 -44 c76
-140 174 -235 311 -301 60 -29 78 -42 78 -58 0 -19 5 -20 88 -19 75 1 87 3 90
19 3 11 0 15 -7 11 -6 -4 -11 -5 -11 -1 0 3 25 16 56 30 126 56 249 168 325
296 l42 70 -39 34 c-44 38 -56 42 -74 20 -17 -21 -27 -19 -33 7 -5 19 -8 20
-23 7 -16 -13 -17 -12 -10 6 109 270 126 355 133 633 l5 212 -471 0 -471 0 0
-108z m918 -48 l3 -131 -444 -1 -444 -2 -7 53 c-11 91 -7 205 6 209 7 3 209 4
448 4 l435 -1 3 -131z m-3 -211 c-4 -38 -9 -70 -11 -72 -2 -3 -10 3 -17 13
-10 14 -25 17 -72 14 l-60 -3 3 34 c2 32 -11 61 -29 61 -5 0 -4 -9 3 -20 10
-15 10 -22 0 -32 -6 -6 -12 -27 -12 -45 0 -33 0 -33 49 -33 28 0 53 5 56 10
11 18 44 10 61 -15 15 -23 15 -31 -2 -107 l-19 -83 -193 -2 -192 -3 0 170 0
170 176 -1 c97 0 179 2 182 5 3 4 23 6 45 6 l39 0 -7 -67z m-664 -5 c0 -59 3
-65 35 -91 l34 -29 0 91 0 91 40 0 40 0 0 -121 0 -120 30 -26 c18 -15 30 -34
30 -49 0 -21 -5 -24 -35 -24 l-35 0 0 47 c0 37 -6 53 -27 75 -15 15 -30 28
-35 28 -4 0 -8 -21 -8 -46 0 -39 5 -51 31 -75 l31 -29 -31 0 c-25 0 -31 4 -31
23 0 13 -14 33 -35 50 l-35 28 0 -51 0 -50 -40 0 -40 0 0 80 c0 76 -2 83 -27
105 -16 13 -30 25 -33 25 -3 0 -4 -48 -2 -107 4 -136 -7 -128 -42 28 -32 145
-32 145 2 119 l27 -22 3 51 c2 28 7 51 11 51 4 0 18 -11 31 -25 31 -33 43 -32
35 5 -6 30 -6 30 34 30 l41 0 1 -62z m214 -308 c-3 -5 -6 -139 -6 -297 0 -158
-3 -280 -7 -271 -4 9 -20 26 -35 39 -41 32 -108 119 -101 131 4 6 -6 20 -22
33 -26 21 -27 25 -16 49 7 15 12 47 12 71 0 49 -11 56 -53 34 -18 -10 -24 -8
-43 17 -19 24 -84 176 -84 197 0 4 81 7 181 7 114 0 178 -4 174 -10z m109 -11
l26 -20 0 20 c0 16 6 21 29 21 27 0 30 -3 36 -50 5 -40 13 -54 36 -71 l29 -20
0 70 0 71 30 0 30 0 0 -88 c0 -49 -3 -92 -7 -95 -3 -4 -17 3 -31 15 l-24 23 3
-62 c1 -35 -1 -66 -4 -70 -4 -3 -7 0 -7 9 0 8 -11 25 -25 38 l-25 23 0 -81 c0
-76 -2 -85 -32 -128 l-33 -46 -3 150 -3 149 -29 28 -30 29 0 -214 c0 -206 -1
-215 -22 -237 -12 -13 -25 -23 -30 -23 -4 0 -8 118 -8 262 l0 261 23 -21 c34
-32 40 -27 34 28 -7 56 -2 59 37 29z m-419 -179 c8 -13 -4 -50 -16 -50 -5 0
-9 14 -9 30 0 30 13 40 25 20z m675 -20 c0 -18 -5 -30 -13 -30 -14 0 -19 23
-11 48 7 24 24 12 24 -18z m-734 -60 c46 -87 143 -182 254 -245 66 -39 80 -51
80 -72 0 -30 -10 -27 -119 26 -74 35 -171 115 -212 173 -21 28 -21 30 -3 44
18 14 18 15 -3 5 -19 -10 -25 -5 -53 39 l-32 51 23 23 c13 13 25 24 26 25 1 1
18 -30 39 -69z m727 -3 c32 2 34 7 -36 -80 -39 -48 -119 -113 -189 -156 -21
-12 -38 -20 -38 -17 0 2 24 32 54 66 29 34 80 106 112 160 l59 98 5 -37 c4
-32 8 -36 33 -34z m116 -6 c-70 -125 -186 -237 -306 -297 -61 -30 -77 -34 -84
-23 -17 27 -8 39 64 80 91 53 223 184 262 261 l29 56 28 -20 28 -20 -21 -37z
m-623 -163 c24 -32 41 -58 38 -58 -26 0 -244 205 -244 229 0 4 12 7 28 6 22 0
28 5 30 28 3 25 9 19 54 -60 27 -48 70 -114 94 -145z m-56 197 c7 -9 10 -25 5
-42 l-7 -28 -18 25 c-28 37 -32 60 -10 60 10 0 23 -7 30 -15z"/>
<path d="M1324 2076 c-28 -28 -34 -42 -34 -76 0 -52 13 -76 50 -95 62 -32 131
-4 160 64 27 65 -28 141 -102 141 -32 0 -47 -7 -74 -34z m63 5 c20 -6 35 -5
42 2 15 15 49 -18 61 -61 11 -42 6 -53 -23 -48 -24 3 -35 32 -18 49 8 8 11 4
12 -13 l1 -25 7 25 c4 14 4 27 -1 28 -4 2 -8 11 -8 19 0 10 -6 13 -16 9 -9 -3
-32 -6 -52 -7 -29 0 -33 -2 -17 -8 11 -5 32 -5 48 0 20 6 27 4 27 -7 0 -9 -12
-14 -32 -15 -24 -1 -27 -3 -10 -6 12 -2 22 -11 22 -19 0 -19 -4 -18 -51 12
-26 16 -39 30 -35 40 3 8 1 14 -5 14 -6 0 -7 5 -4 10 8 12 12 12 52 1z m-67
-70 c0 -11 6 -18 13 -17 6 0 12 -3 12 -8 0 -4 16 -14 35 -20 21 -7 34 -18 32
-26 -3 -11 0 -11 14 1 12 9 15 9 10 2 -9 -16 6 -17 22 -1 7 7 12 9 12 4 0 -41
-105 -56 -141 -20 -23 24 -42 123 -20 110 6 -4 11 -15 11 -25z"/>
<path d="M1603 2092 c-35 -5 -53 -40 -53 -100 0 -75 13 -96 56 -88 19 4 43 2
54 -4 16 -9 25 -8 36 1 8 6 27 9 44 6 53 -11 60 -2 60 74 0 90 -16 106 -109
111 -36 2 -76 2 -88 0z m51 -28 c12 -5 16 -21 16 -68 l0 -61 -45 -3 -45 -2 0
64 c0 53 3 65 18 69 27 7 39 7 56 1z m116 -68 l0 -64 -45 1 -45 2 0 63 0 62
45 0 45 0 0 -64z"/>
<path d="M1601 1998 c0 -35 3 -46 8 -34 7 18 8 18 14 2 6 -15 10 -16 22 -6 21
18 18 90 -5 90 -8 0 -4 -55 5 -70 3 -5 1 -11 -4 -14 -5 -3 -14 14 -20 39 -6
25 -13 45 -16 45 -3 0 -5 -24 -4 -52z"/>
<path d="M1710 2042 c0 -5 3 -12 7 -16 4 -4 8 -15 8 -23 0 -9 6 -18 13 -20 17
-6 15 35 -2 53 -16 16 -26 18 -26 6z"/>
<path d="M1694 1997 c1 -38 4 -42 29 -45 15 -2 27 2 27 8 0 6 -4 8 -10 5 -16
-10 -37 17 -32 41 2 12 0 24 -5 27 -5 3 -9 -13 -9 -36z"/>
<path d="M1007 2072 c-12 -13 -17 -37 -17 -84 0 -76 12 -93 60 -83 19 4 36 2
46 -6 12 -9 19 -9 37 0 13 7 41 11 63 9 l39 -3 3 65 c3 55 0 70 -18 93 -20 26
-26 27 -109 27 -72 0 -91 -3 -104 -18z m87 -8 c12 -5 16 -21 16 -68 l0 -61
-45 -3 -45 -2 0 49 c0 27 -3 56 -6 64 -8 21 45 34 80 21z m116 -70 l0 -64 -45
2 -45 3 0 62 0 62 38 3 c20 2 40 2 45 0 4 -2 7 -32 7 -68z"/>
<path d="M1040 2011 c0 -27 4 -40 10 -36 6 4 9 20 6 37 -7 46 -16 46 -16 -1z"/>
<path d="M1075 2004 c5 -64 15 -68 15 -6 0 29 -4 52 -9 52 -6 0 -8 -21 -6 -46z"/>
<path d="M1150 2040 c0 -6 7 -13 16 -17 11 -4 12 -8 4 -13 -13 -8 -5 -30 11
-30 14 0 11 40 -5 56 -17 17 -26 18 -26 4z"/>
<path d="M1134 1997 c1 -38 4 -42 29 -45 15 -2 27 2 27 8 0 6 -4 8 -10 5 -16
-10 -37 17 -32 41 2 12 0 24 -6 28 -6 3 -9 -12 -8 -37z"/>
<path d="M1580 1815 c-10 -13 -11 -20 -1 -39 7 -13 11 -34 9 -47 -3 -21 -9
-24 -52 -27 -27 -2 -54 2 -59 7 -16 16 -44 13 -51 -6 -10 -24 11 -33 86 -33
98 0 98 0 98 86 0 74 -7 87 -30 59z"/>
<path d="M1614 1609 c3 -34 6 -70 6 -80 0 -11 6 -19 14 -19 19 0 29 29 16 46
-6 7 -10 30 -8 51 l3 38 50 -1 c28 -1 60 -4 72 -8 16 -6 24 -3 32 13 12 21 10
21 -90 21 l-102 0 7 -61z"/>
<path d="M1410 1652 c0 -22 37 -42 68 -36 17 4 42 4 56 0 24 -6 25 -9 19 -56
-4 -36 -2 -50 7 -50 7 0 10 6 7 13 -3 7 1 21 9 32 8 10 14 33 14 51 0 31 -2
32 -51 39 -33 5 -55 3 -62 -4 -15 -15 -33 -14 -51 5 -9 8 -16 11 -16 6z"/>
<path d="M1100 1718 c0 -51 3 -59 33 -84 l32 -27 3 48 c3 44 0 52 -32 84 l-36
36 0 -57z"/>
<path d="M1197 1457 c-3 -8 -1 -20 4 -28 5 -8 9 -35 9 -61 0 -43 -2 -48 -23
-48 -13 0 -28 5 -33 10 -7 7 -17 5 -30 -5 -29 -23 0 -37 63 -31 l52 4 3 -101
c3 -97 4 -100 21 -83 11 12 15 25 11 35 -4 9 -10 40 -12 69 l-4 54 54 -4 c42
-2 53 0 53 12 0 12 -13 15 -60 15 l-60 0 -9 88 c-6 58 -13 87 -21 87 -7 0 -15
-6 -18 -13z"/>
<path d="M1272 1453 c-1 -10 -5 -44 -8 -75 l-6 -58 30 0 c17 0 34 5 37 10 4 6
15 8 26 5 10 -4 19 -2 19 4 0 14 -34 23 -55 15 -24 -10 -35 13 -24 50 9 31 4
66 -10 66 -3 0 -8 -8 -9 -17z"/>
<path d="M1520 1383 c0 -42 5 -54 30 -78 l30 -29 0 56 c0 51 -3 59 -30 78
l-30 21 0 -48z"/>
<path d="M1067 1063 c-13 -12 -7 -25 6 -14 18 14 30 2 16 -16 -13 -14 -9 -16
16 -7 14 6 14 8 -1 25 -18 20 -27 23 -37 12z"/>
<path d="M460 647 c-36 -18 -62 -74 -56 -120 13 -108 107 -141 163 -58 38 56
25 138 -29 175 -27 19 -45 20 -78 3z m77 -33 c20 -32 22 -113 3 -148 -37 -70
-100 -24 -100 72 0 36 6 66 16 80 21 30 59 29 81 -4z"/>
<path d="M1042 648 c-12 -6 -25 -23 -29 -36 -6 -26 12 -47 81 -95 32 -22 35
-62 6 -77 -30 -16 -59 -3 -74 33 l-14 32 -1 -36 c-1 -40 10 -49 58 -49 38 0
81 35 81 66 0 26 -15 43 -70 78 -24 15 -35 29 -35 46 0 21 5 25 30 25 22 0 33
-6 40 -22 14 -32 29 -29 20 4 -4 16 -8 29 -9 30 -10 10 -65 10 -84 1z"/>
<path d="M1494 626 c-29 -29 -34 -41 -34 -80 0 -59 21 -100 59 -116 41 -16 75
-6 101 30 40 57 24 157 -31 185 -41 22 -57 19 -95 -19z m96 -1 c16 -19 24 -85
16 -129 -8 -40 -43 -70 -70 -60 -42 16 -59 105 -32 169 12 29 20 35 44 35 16
0 35 -7 42 -15z"/>
<path d="M2342 648 c-51 -25 -35 -81 33 -115 16 -9 33 -21 37 -27 14 -21 8
-55 -12 -66 -30 -16 -59 -3 -74 33 l-14 32 -1 -36 c-1 -40 10 -49 58 -49 38 0
81 35 81 66 0 26 -15 43 -70 78 -24 15 -35 29 -35 46 0 21 5 25 30 25 22 0 33
-6 40 -22 14 -32 29 -29 20 4 -4 16 -8 29 -9 30 -10 10 -65 10 -84 1z"/>
<path d="M323 643 c15 -4 17 -19 17 -128 0 -97 -3 -125 -15 -135 -10 -9 -15
-9 -15 -1 0 6 -9 11 -21 11 -29 0 -18 -24 13 -28 18 -2 32 5 47 24 18 23 21
40 21 136 0 103 1 109 23 118 17 7 9 9 -33 8 -30 0 -47 -2 -37 -5z"/>
<path d="M603 643 c15 -4 17 -18 17 -104 0 -81 -3 -99 -15 -99 -8 0 -15 -4
-15 -8 0 -4 18 -8 40 -7 22 0 40 3 40 8 0 4 -4 7 -10 7 -5 0 -10 23 -10 50 l0
50 45 0 45 0 0 -50 c0 -27 -4 -50 -10 -50 -5 0 -10 -4 -10 -8 0 -5 16 -8 35
-8 19 1 35 4 35 9 0 4 -4 7 -10 7 -6 0 -10 40 -10 99 0 86 2 100 18 104 9 3
-3 5 -28 5 -25 0 -39 -2 -32 -5 7 -3 12 -23 12 -49 l0 -44 -45 0 -45 0 0 44
c0 26 5 46 13 49 6 3 -8 5 -33 5 -25 0 -37 -2 -27 -5z"/>
<path d="M818 643 c15 -6 17 -203 2 -203 -5 0 -10 -3 -10 -7 0 -5 16 -8 35 -9
19 0 35 3 35 8 0 4 -7 8 -15 8 -12 0 -15 16 -15 85 0 47 1 85 3 85 2 0 30 -43
63 -95 32 -52 62 -94 67 -95 4 0 7 49 7 109 0 78 4 111 13 114 6 3 -6 5 -28 5
-22 0 -32 -2 -22 -5 14 -4 17 -17 17 -81 0 -43 -4 -72 -9 -66 -4 5 -29 42 -54
82 -40 62 -51 72 -74 71 -16 0 -22 -3 -15 -6z"/>
<path d="M1263 639 c14 -8 17 -25 17 -100 0 -70 -3 -91 -15 -95 -27 -11 -16
-19 25 -19 41 0 52 8 25 19 -10 4 -15 20 -15 51 l0 45 50 0 50 0 0 -50 c0 -27
-4 -50 -10 -50 -5 0 -10 -3 -10 -7 0 -5 16 -8 35 -8 19 0 35 3 35 8 0 4 -4 7
-10 7 -15 0 -13 197 3 203 6 3 -8 5 -33 5 -25 0 -37 -2 -27 -5 13 -3 17 -15
17 -49 l0 -44 -50 0 -50 0 0 40 c0 27 6 42 18 49 13 8 7 10 -28 10 -35 0 -41
-2 -27 -10z"/>
<path d="M1653 643 c15 -4 17 -18 17 -104 0 -86 -2 -99 -17 -99 -9 0 -14 -3
-10 -6 9 -10 87 -11 87 -2 0 4 -7 8 -15 8 -11 0 -15 12 -15 45 l0 45 38 0 c45
0 72 24 72 63 0 40 -33 57 -110 56 -36 -1 -57 -3 -47 -6z m108 -13 c22 -12 26
-59 7 -78 -7 -7 -25 -12 -40 -12 -27 0 -28 2 -28 50 0 44 3 50 21 50 11 0 29
-5 40 -10z"/>
<path d="M1828 643 c15 -6 17 -203 2 -203 -5 0 -10 -4 -10 -8 0 -10 67 -8 77
2 3 3 -1 6 -10 6 -25 0 -24 185 1 200 13 7 6 9 -28 9 -25 0 -39 -3 -32 -6z"/>
<path d="M1932 642 c14 -6 11 -13 -17 -46 l-33 -39 36 -56 c22 -34 31 -56 24
-59 -7 -2 -12 -7 -12 -10 0 -9 148 -7 157 2 3 3 -1 6 -10 6 -15 0 -17 13 -17
99 0 86 2 100 18 104 9 3 -23 5 -73 5 -49 0 -83 -2 -73 -6z m98 -102 c0 -97
-1 -100 -22 -100 -17 0 -33 16 -60 61 -21 33 -38 64 -38 69 0 17 72 70 95 70
25 0 25 0 25 -100z"/>
<path d="M2110 640 c11 -7 13 -29 11 -102 -1 -51 -7 -94 -12 -96 -21 -8 -7
-17 26 -17 19 0 35 3 35 8 0 4 -7 7 -15 7 -12 0 -15 16 -15 85 0 47 2 85 4 85
2 0 30 -43 62 -95 33 -52 62 -94 67 -95 4 0 7 49 7 109 0 78 4 111 13 114 6 3
-6 5 -28 5 -22 0 -32 -2 -22 -5 14 -4 17 -16 17 -68 0 -35 3 -71 7 -81 14 -37
-15 -2 -63 75 -44 72 -52 80 -79 81 -22 0 -26 -3 -15 -10z"/>
<path d="M420 363 c0 -37 13 -56 36 -51 15 2 19 13 21 43 1 38 1 38 -5 7 -9
-43 -26 -46 -30 -4 -4 39 -22 43 -22 5z"/>
<path d="M648 350 c-2 -25 1 -40 8 -40 7 0 9 10 6 25 -6 33 4 32 22 -2 11 -21
15 -23 16 -10 0 20 -28 67 -40 67 -4 0 -10 -18 -12 -40z"/>
<path d="M878 350 c-2 -28 0 -40 9 -40 8 0 13 14 13 40 0 22 -4 40 -9 40 -5 0
-11 -18 -13 -40z"/>
<path d="M1077 350 c9 -22 17 -39 19 -38 10 11 31 78 25 78 -5 0 -12 -10 -16
-22 l-8 -23 -4 23 c-2 12 -10 22 -18 22 -11 0 -10 -8 2 -40z"/>
<path d="M1288 350 c-3 -38 -2 -40 23 -40 24 0 26 3 25 40 0 22 -4 40 -9 40
-4 0 -6 -4 -2 -9 3 -5 1 -12 -5 -16 -5 -3 -10 1 -10 9 0 34 -18 14 -22 -24z"/>
<path d="M1510 350 c0 -41 19 -58 21 -17 l0 22 11 -22 c6 -13 15 -23 20 -23
12 0 10 14 -4 28 -8 8 -8 15 0 25 12 14 7 27 -9 27 -5 0 -6 -7 -3 -15 4 -8 1
-15 -5 -15 -6 0 -11 7 -11 15 0 8 -4 15 -10 15 -5 0 -10 -18 -10 -40z"/>
<path d="M1730 375 c0 -9 7 -18 15 -21 8 -4 15 -12 15 -20 0 -17 -17 -18 -23
-1 -3 7 -6 5 -6 -5 -1 -19 7 -22 33 -12 22 9 20 31 -4 44 -11 6 -18 15 -15 21
4 5 1 9 -4 9 -6 0 -11 -7 -11 -15z"/>
<path d="M1945 350 c0 -24 5 -40 12 -40 7 0 12 15 11 40 0 23 -5 40 -12 40 -6
0 -11 -17 -11 -40z"/>
<path d="M2130 379 c0 -5 5 -7 10 -4 6 4 10 -8 10 -29 0 -23 5 -36 13 -36 9 0
12 11 9 36 -3 26 -1 35 7 30 6 -4 11 -2 11 3 0 6 -13 11 -30 11 -16 0 -30 -5
-30 -11z"/>
<path d="M2361 369 c6 -12 9 -30 6 -40 -4 -14 0 -19 13 -19 16 0 17 4 10 30
-11 37 -19 50 -31 50 -6 0 -5 -8 2 -21z"/>
</g>
</svg>
