<?xml version="1.0" standalone="no"?>
<!DOCTYPE svg PUBLIC "-//W3C//DTD SVG 20010904//EN"
 "http://www.w3.org/TR/2001/REC-SVG-20010904/DTD/svg10.dtd">
<svg version="1.0" xmlns="http://www.w3.org/2000/svg"
 width="300.000000pt" height="192.000000pt" viewBox="0 0 300.000000 192.000000"
 preserveAspectRatio="xMidYMid meet">
<metadata>
Created by potrace 1.10, written by Peter Selinger 2001-2011
</metadata>
<g transform="translate(0.000000,192.000000) scale(0.100000,-0.100000)"
fill="#000000" stroke="none">
<path d="M250 1911 c0 -20 30 -30 100 -33 l75 -3 3 -38 c3 -34 0 -39 -30 -51
-18 -8 -69 -22 -113 -31 -44 -10 -81 -19 -83 -20 -2 -2 6 -21 17 -44 16 -31
21 -59 21 -123 0 -91 -9 -121 -80 -273 -24 -49 -45 -111 -47 -136 l-5 -47 53
-20 54 -20 11 47 c22 97 77 160 163 185 120 35 219 9 299 -78 46 -49 81 -116
82 -152 l0 -21 75 18 c130 30 145 37 145 65 0 14 -5 34 -11 45 -9 18 -17 19
-68 13 -95 -10 -101 -3 -101 121 l0 105 -35 0 c-21 0 -38 6 -41 13 -3 8 11 37
30 65 34 50 35 55 29 121 -4 51 -2 76 10 100 l15 31 -41 10 c-72 19 -112 32
-121 41 -12 11 -9 74 4 99 9 17 8 20 -9 20 -22 0 -43 -54 -36 -92 7 -34 47
-68 94 -81 45 -12 66 -39 51 -66 -4 -8 -4 -27 0 -43 12 -41 -5 -111 -31 -128
-4 -3 -11 -24 -14 -46 -7 -38 -5 -42 29 -68 36 -27 36 -27 36 -105 0 -64 4
-81 20 -99 12 -12 26 -22 33 -23 7 -1 29 -3 50 -4 21 -2 45 -6 54 -9 24 -10
-4 -36 -38 -36 -16 0 -29 -4 -29 -8 0 -4 -16 -9 -35 -10 -30 -2 -36 2 -51 30
-51 100 -120 170 -201 204 -79 33 -245 -1 -307 -64 -34 -34 -76 -109 -76 -136
0 -8 -6 -16 -14 -19 -19 -7 -56 20 -56 41 0 9 21 62 46 117 85 186 89 201 87
298 -2 48 -7 95 -11 105 -13 24 -4 42 22 42 12 0 50 9 84 21 99 33 127 88 76
148 -25 30 -29 31 -105 31 -43 0 -79 -4 -79 -9z"/>
<path d="M0 1846 c0 -20 6 -24 39 -30 31 -5 49 -17 87 -58 59 -66 83 -119 91
-203 7 -72 -4 -92 -59 -121 -49 -25 -92 -18 -127 21 l-31 36 0 -28 c0 -42 59
-77 113 -69 43 7 85 35 104 69 17 31 15 144 -3 192 -9 22 -18 52 -21 67 -9 47
-133 148 -183 148 -5 0 -10 -11 -10 -24z"/>
<path d="M973 1859 c-37 -11 -44 -29 -12 -29 11 0 17 5 14 10 -7 12 98 14 109
3 4 -4 15 -8 24 -8 14 0 17 -11 18 -62 0 -34 3 -66 7 -69 4 -4 7 23 7 60 0 65
1 67 23 60 12 -4 33 -8 45 -10 13 -1 27 -6 30 -10 4 -4 -1 -4 -10 -1 -27 10
-29 -7 -2 -20 16 -7 24 -8 24 -1 0 6 7 6 18 -2 9 -7 -2 6 -26 28 -24 23 -49
39 -56 36 -7 -3 -26 0 -42 6 -41 16 -133 21 -171 9z"/>
<path d="M2830 1854 c-77 -21 -121 -53 -154 -113 -25 -47 -28 -60 -24 -124 5
-77 -3 -103 -50 -164 -26 -35 -23 -40 33 -45 l30 -3 3 -99 c1 -55 8 -106 14
-113 7 -8 35 -13 79 -13 65 0 70 -2 79 -26 22 -57 14 -63 -135 -98 l-90 -22
-6 -51 c-4 -29 -32 -108 -68 -187 -36 -80 -61 -150 -61 -170 0 -30 5 -36 38
-49 20 -8 55 -18 78 -21 22 -4 63 -20 90 -36 l49 -28 36 34 c39 38 114 64 187
64 23 0 42 5 42 10 0 14 -34 16 -105 5 -39 -6 -135 -45 -135 -55 0 -16 -34
-20 -55 -6 -12 8 -55 24 -96 36 -111 33 -115 43 -58 168 17 37 37 83 46 102 8
19 18 42 23 51 5 9 12 33 15 52 4 20 14 42 23 50 17 15 118 43 138 39 6 -1 25
11 42 27 17 15 33 27 35 25 2 -3 4 10 5 27 0 18 -5 38 -13 45 -7 8 -15 18 -17
24 -2 6 -32 15 -68 21 -36 5 -68 13 -72 17 -3 4 -8 44 -10 89 -3 74 -6 85 -29
107 l-27 25 25 49 25 50 42 -18 c23 -11 56 -21 74 -25 39 -7 140 -52 165 -73
9 -8 20 -12 25 -7 4 4 1 10 -6 12 -9 4 -10 9 -2 18 6 7 8 20 4 29 -7 19 -40
22 -46 4 -3 -8 -16 -3 -39 14 -19 14 -60 30 -93 37 -74 14 -104 33 -122 76
-20 48 -18 72 10 120 27 46 115 101 123 78 4 -10 11 -9 33 2 19 10 47 13 85
10 48 -3 56 -2 53 13 -6 32 -81 39 -168 16z"/>
<path d="M890 1825 c-15 -18 -34 -20 -24 -2 4 6 -2 4 -13 -6 -13 -11 -19 -26
-16 -38 6 -20 6 -20 24 0 11 12 26 18 37 15 13 -5 14 -4 3 4 -10 7 -8 13 10
26 17 12 19 16 7 16 -8 0 -21 -7 -28 -15z"/>
<path d="M1051 1773 c-1 -64 1 -72 16 -66 11 4 12 8 5 11 -16 5 -15 29 1 35
10 4 10 6 0 6 -18 1 -16 31 1 31 11 0 16 -14 19 -47 3 -40 4 -37 4 17 1 36 -1
59 -4 53 -8 -21 -31 -15 -36 10 -2 12 -5 -10 -6 -50z"/>
<path d="M2903 1807 c-9 -14 24 -40 42 -33 24 9 14 39 -13 41 -13 1 -25 -2
-29 -8z"/>
<path d="M1170 1786 c0 -13 -6 -27 -12 -29 -10 -4 -10 -6 0 -6 6 -1 12 -8 12
-16 0 -8 -6 -15 -12 -15 -10 0 -10 -2 -1 -8 6 -4 36 -7 67 -6 38 2 56 -2 60
-11 4 -11 -8 -13 -55 -12 -33 2 -65 -1 -72 -5 -8 -5 -9 -8 -1 -8 21 0 22 -46
2 -59 -16 -10 -18 -7 -18 35 0 25 -4 43 -8 40 -5 -3 -7 -25 -5 -50 2 -26 -1
-46 -6 -46 -15 0 -61 64 -62 86 0 10 -3 14 -5 7 -3 -7 -12 -9 -20 -6 -8 3 -23
-5 -34 -18 l-20 -24 3 43 c3 40 2 42 -25 42 -16 0 -27 -5 -25 -12 1 -6 -7 -14
-17 -16 -14 -3 -17 0 -13 12 4 9 2 16 -3 16 -15 0 -12 28 3 33 6 2 0 4 -15 3
-17 -1 -23 -5 -17 -10 14 -15 11 -26 -7 -26 -9 0 -12 5 -8 12 4 7 3 8 -4 4
-20 -12 -13 -26 13 -26 20 0 25 -5 25 -26 0 -24 2 -25 17 -13 11 10 17 11 20
3 2 -7 13 -10 23 -7 14 4 20 0 20 -11 0 -9 -8 -16 -20 -16 -11 0 -20 -4 -20
-10 0 -10 55 -8 66 3 3 3 13 3 22 0 15 -4 15 -3 2 6 -11 8 -12 13 -3 22 19 19
33 1 34 -44 1 -38 2 -39 8 -12 l6 30 23 -32 c23 -32 24 -33 53 -18 l29 16 0
-51 c0 -27 3 -50 8 -50 4 0 5 25 3 56 -2 40 1 59 10 65 22 14 56 10 63 -7 5
-12 0 -15 -20 -12 -26 3 -27 1 -28 -49 l-2 -53 45 6 c25 3 48 7 50 10 5 4 -33
7 -61 5 -10 -1 -18 4 -18 13 0 12 10 15 43 13 32 -1 41 2 38 13 -2 8 -4 20 -4
27 0 7 -4 10 -8 7 -4 -2 -13 5 -19 16 -9 17 -8 20 13 20 19 0 26 -7 30 -30 8
-37 -2 -113 -15 -121 -6 -4 -8 -11 -4 -17 7 -12 -20 -36 -33 -28 -5 3 -11 -1
-15 -9 -7 -20 -24 -19 -29 3 -4 16 -5 16 -6 0 -1 -20 -31 -25 -31 -5 0 9 -2 9
-9 -1 -14 -24 -48 7 -83 75 -17 34 -33 61 -36 59 -2 -2 -26 5 -55 15 -28 10
-58 19 -66 19 -21 0 -81 43 -81 58 0 6 -4 12 -10 12 -17 0 -11 -15 18 -46 33
-35 65 -54 92 -54 11 0 28 -4 38 -9 9 -5 25 -12 35 -15 10 -3 25 -20 35 -38 9
-17 31 -48 49 -67 29 -33 36 -36 85 -36 71 1 111 28 127 88 14 49 11 208 -3
199 -5 -3 -6 2 -3 12 4 9 3 15 -2 12 -5 -3 -18 9 -28 27 -18 30 -23 33 -63 29
-40 -4 -43 -3 -37 17 3 11 1 24 -4 27 -5 3 -9 -6 -9 -20z m98 -53 c2 -8 -6
-13 -22 -13 -17 0 -26 5 -26 16 0 19 41 16 48 -3z m36 -78 c4 -12 -3 -15 -29
-15 -18 0 -37 4 -40 10 -4 6 -16 4 -31 -6 -23 -16 -24 -15 -24 5 0 19 6 21 59
21 43 0 60 -4 65 -15z m-20 -80 c4 -12 -3 -15 -29 -15 -24 0 -35 5 -35 15 0
10 10 15 29 15 16 0 31 -6 35 -15z"/>
<path d="M1006 1758 c1 -44 6 -53 27 -45 9 4 9 6 0 6 -7 1 -13 7 -13 15 0 8 6
17 13 19 10 4 10 6 0 6 -7 1 -13 7 -13 15 0 8 6 17 13 19 6 3 3 6 -8 6 -17 1
-20 -5 -19 -41z"/>
<path d="M2840 1770 c0 -16 5 -21 23 -18 12 2 22 10 22 18 0 8 -10 16 -22 18
-18 3 -23 -2 -23 -18z"/>
<path d="M2967 1753 c-15 -14 -7 -43 12 -43 13 0 19 7 19 25 0 24 -17 33 -31
18z"/>
<path d="M2760 1725 c-10 -12 -10 -19 -1 -28 14 -14 46 2 46 24 0 20 -30 23
-45 4z"/>
<path d="M2837 1734 c-13 -13 -7 -42 10 -48 23 -9 40 10 27 31 -12 20 -27 26
-37 17z"/>
<path d="M2694 1689 c-3 -6 0 -17 8 -25 13 -13 16 -13 27 0 7 8 10 20 6 26 -8
13 -32 13 -41 -1z"/>
<path d="M2907 1694 c-4 -4 -7 -16 -7 -26 0 -14 6 -19 23 -16 14 2 22 10 22
23 0 20 -25 32 -38 19z"/>
<path d="M1615 1666 c-52 -24 -122 -92 -149 -144 -52 -100 -40 -200 44 -390
44 -101 60 -150 58 -174 -3 -31 -7 -34 -67 -54 l-64 -22 -25 37 c-14 20 -34
43 -46 51 -64 46 -203 64 -273 35 -61 -26 -117 -80 -153 -146 -31 -58 -33 -69
-32 -151 1 -85 3 -91 67 -233 39 -87 65 -159 65 -179 0 -31 -4 -36 -42 -50
-24 -8 -68 -22 -99 -30 -103 -29 -156 -83 -174 -178 -6 -30 -4 -38 8 -38 9 0
17 14 22 38 4 20 14 50 23 65 21 36 105 84 160 93 23 4 42 10 42 15 0 5 5 9
11 9 5 0 7 -5 3 -12 -4 -6 9 1 28 15 40 31 51 65 39 118 -10 42 -41 121 -53
134 -4 5 -8 17 -8 27 0 14 9 18 43 19 99 2 136 18 162 73 9 19 24 41 33 48 18
15 101 43 116 39 5 -1 12 2 15 6 3 4 16 14 29 21 20 11 23 10 32 -15 6 -16 17
-40 25 -55 21 -36 19 -45 -12 -60 -27 -13 -28 -16 -31 -103 -2 -49 -7 -94 -12
-99 -6 -6 -40 -13 -76 -17 -75 -8 -85 -17 -82 -74 4 -48 35 -70 124 -86 97
-18 141 -43 153 -87 6 -20 11 -54 11 -74 0 -22 5 -38 11 -38 8 0 10 20 6 66
-8 99 -22 113 -146 145 -146 37 -154 42 -146 82 11 47 10 47 83 47 37 0 72 4
79 8 8 5 13 44 15 112 l3 105 30 3 c55 5 58 9 32 44 -46 62 -56 90 -47 138 4
24 7 48 5 54 -2 6 -6 26 -9 44 -5 30 -3 32 22 32 52 0 98 19 110 46 23 48 14
86 -51 224 -20 41 -39 88 -43 104 -7 29 -7 29 17 13 40 -29 100 -21 186 23 53
27 91 40 118 40 22 0 64 12 94 25 56 26 70 23 71 -15 0 -8 7 -24 15 -34 21
-28 18 -50 -7 -61 -21 -9 -23 -18 -28 -107 -3 -53 -8 -99 -12 -103 -3 -4 -34
-8 -67 -9 -73 -3 -101 -23 -101 -72 0 -44 20 -56 143 -89 160 -42 157 -40 157
-124 0 -73 21 -91 104 -91 64 0 66 -1 66 -25 0 -22 -8 -27 -87 -50 -160 -48
-156 -46 -182 -98 -22 -45 -23 -59 -25 -258 -1 -116 1 -212 5 -215 4 -2 9 94
11 214 3 174 7 224 20 254 19 44 31 49 152 78 121 29 128 33 124 78 l-3 37
-77 3 c-93 3 -101 12 -97 103 1 33 -2 63 -7 68 -5 5 -52 19 -104 31 -52 12
-114 28 -138 37 -42 15 -43 16 -40 57 l3 41 71 1 c39 0 76 4 82 8 8 5 12 42
12 112 l0 104 26 0 c14 0 34 4 44 10 18 9 17 13 -15 61 -33 47 -35 55 -33 128
2 89 -19 145 -74 198 -66 62 -204 81 -293 39z m199 -37 c21 -6 45 -8 52 -5 9
3 18 -2 21 -12 4 -9 20 -36 35 -58 15 -23 28 -52 28 -63 0 -32 -37 -98 -63
-115 -23 -15 -167 -29 -167 -16 0 4 9 19 20 33 25 31 26 50 3 45 -10 -2 -18
-12 -19 -24 -1 -11 -6 -29 -12 -41 -9 -16 -9 -22 0 -25 16 -6 1 -28 -19 -28
-8 0 -39 -13 -69 -30 l-55 -30 -40 25 c-22 14 -45 38 -50 53 -6 15 -15 34 -20
44 -5 10 -1 30 11 57 11 22 20 47 20 56 0 9 17 41 37 70 32 45 46 56 88 69 52
16 125 14 199 -5z m-463 -685 c19 -11 43 -36 53 -56 18 -32 19 -41 7 -92 -10
-47 -18 -59 -39 -68 -15 -5 -35 -14 -44 -19 -10 -5 -23 -9 -30 -9 -7 0 -29 -5
-49 -10 -30 -9 -42 -20 -65 -64 -32 -61 -71 -86 -134 -86 -51 0 -74 29 -94
120 -22 97 -20 128 14 187 30 53 64 83 122 108 50 21 215 14 259 -11z"/>
<path d="M1740 1617 c0 -7 -14 -29 -31 -50 l-31 -37 -41 35 c-22 19 -43 32
-46 29 -3 -3 1 -11 10 -17 8 -7 28 -22 44 -35 l29 -23 -42 -42 -42 -41 -34 33
c-20 19 -33 38 -30 42 2 4 0 10 -5 13 -5 3 -11 0 -14 -8 -3 -7 10 -28 28 -46
38 -37 37 -50 -3 -50 -15 -1 -38 -8 -52 -16 -14 -9 -17 -13 -7 -10 10 3 36 9
58 12 21 4 39 11 39 16 0 5 5 6 11 3 5 -4 32 14 60 40 45 42 52 45 87 39 68
-12 82 -22 104 -71 24 -55 26 -58 33 -51 3 3 -6 30 -21 60 l-26 54 31 49 c31
50 37 65 24 65 -5 0 -19 -23 -33 -51 l-25 -51 -54 6 c-30 4 -57 8 -59 11 -5 4
49 78 61 83 13 6 7 22 -8 22 -8 0 -15 -6 -15 -13z"/>
<path d="M1915 1510 c-4 -6 -15 -8 -24 -5 -10 3 -29 1 -42 -4 -20 -8 -14 -10
34 -10 44 -1 57 2 57 14 0 17 -16 20 -25 5z"/>
<path d="M1593 1412 c-5 -4 -14 -29 -18 -57 -4 -27 -12 -56 -17 -62 -8 -10 -6
-13 5 -13 17 0 27 29 27 83 0 20 4 37 10 37 5 0 25 -13 43 -30 40 -34 59 -40
31 -9 -30 34 -69 58 -81 51z"/>
<path d="M1312 895 c0 -23 3 -30 5 -17 2 12 11 22 19 22 8 0 14 5 14 11 0 5
-5 7 -11 3 -6 -3 -15 0 -20 7 -6 9 -8 0 -7 -26z"/>
<path d="M1155 900 c-4 -6 -11 -8 -16 -5 -5 4 -9 -5 -9 -19 0 -21 5 -26 25
-26 18 0 23 -4 19 -15 -4 -8 -1 -15 5 -15 6 0 11 7 11 15 0 8 5 15 10 15 6 0
10 5 10 11 0 6 -8 8 -19 4 -19 -6 -36 18 -25 36 3 5 3 9 0 9 -3 0 -8 -5 -11
-10z"/>
<path d="M1003 875 c-10 -22 -9 -25 8 -25 14 0 19 7 19 25 0 32 -12 32 -27 0z"/>
<path d="M1070 855 c0 -8 -7 -15 -15 -15 -10 0 -15 -10 -15 -27 0 -25 1 -26
14 -8 9 12 19 16 31 11 14 -5 15 -10 7 -18 -8 -8 -6 -18 8 -36 24 -30 25 -42
5 -42 -8 0 -15 -7 -15 -16 0 -8 -5 -12 -10 -9 -6 4 -8 11 -5 16 4 5 -6 9 -21
9 -22 0 -25 -4 -21 -21 3 -12 0 -22 -9 -26 -19 -7 -18 -23 1 -23 11 0 15 -12
16 -42 1 -24 3 -35 6 -25 2 9 11 17 18 17 9 0 12 6 8 16 -4 12 -2 15 8 12 8
-3 13 -11 12 -17 -2 -6 3 -11 11 -11 8 0 17 -8 19 -17 3 -10 5 0 6 21 1 26 -5
43 -16 52 -17 13 -17 13 0 14 14 0 17 9 17 55 0 30 -3 54 -7 53 -5 -2 -8 2 -8
7 0 6 3 9 8 8 4 -2 7 8 7 22 0 18 -5 25 -20 25 -11 0 -20 7 -20 15 0 8 -4 15
-10 15 -5 0 -10 -7 -10 -15z"/>
<path d="M1230 820 c0 -16 3 -29 8 -27 4 1 7 -2 7 -8 0 -5 -3 -9 -7 -7 -5 1
-8 -11 -8 -28 0 -23 4 -30 20 -30 11 0 19 3 18 8 -2 4 2 7 7 7 6 0 9 -3 8 -7
-2 -5 9 -8 23 -8 23 0 25 3 20 25 -5 18 -2 25 9 25 8 0 15 5 15 10 0 6 -7 10
-16 10 -11 0 -15 8 -12 27 2 20 -2 29 -14 31 -13 2 -18 -3 -18 -17 0 -27 -16
-27 -23 -1 -8 33 -37 25 -37 -10z"/>
<path d="M2973 1674 c-3 -8 2 -23 11 -32 15 -15 16 -14 16 16 0 33 -16 43 -27
16z"/>
<path d="M2766 1665 c-5 -15 13 -35 31 -35 19 0 37 39 21 44 -23 7 -47 3 -52
-9z"/>
<path d="M2844 1635 c-10 -25 3 -45 23 -38 23 8 32 23 26 40 -7 18 -42 17 -49
-2z"/>
<path d="M2714 1626 c-8 -21 3 -36 27 -36 15 0 20 6 17 22 -4 27 -35 37 -44
14z"/>
<path d="M1343 1570 c0 -36 2 -50 4 -32 2 17 2 47 0 65 -2 17 -4 3 -4 -33z"/>
<path d="M2923 1623 c-18 -7 -16 -42 3 -50 20 -8 49 21 41 41 -6 16 -21 19
-44 9z"/>
<path d="M2775 1590 c-8 -13 12 -40 29 -40 18 0 35 21 29 36 -6 16 -49 19 -58
4z"/>
<path d="M2873 1573 c-7 -3 -13 -8 -13 -13 0 -11 39 -20 45 -10 7 11 -17 28
-32 23z"/>
<path d="M2924 1539 c-9 -15 12 -33 30 -26 9 4 16 13 16 22 0 17 -35 21 -46 4z"/>
<path d="M1203 1468 c-5 -9 -6 -9 30 -12 15 -1 27 3 27 10 0 13 -49 14 -57 2z"/>
<path d="M2206 1330 c-61 -24 -82 -43 -112 -102 -29 -57 -30 -74 -5 -74 15 0
19 8 19 32 0 87 129 158 243 133 105 -23 138 -39 168 -82 47 -69 63 -106 53
-123 -5 -9 -13 -14 -18 -12 -5 1 -10 -12 -12 -30 l-3 -33 25 17 c19 12 24 20
16 29 -7 9 -6 16 5 25 13 11 15 8 15 -19 0 -24 -6 -34 -30 -46 -24 -12 -31
-13 -34 -3 -12 37 -15 40 -13 14 3 -37 14 -41 55 -16 26 16 32 26 32 52 0 79
-88 200 -173 239 -56 25 -165 25 -231 -1z"/>
<path d="M341 1253 c-9 -6 -13 -15 -9 -19 4 -4 14 -1 23 6 13 11 15 10 14 -6
-4 -43 1 -54 26 -54 14 0 25 -5 25 -11 0 -6 -9 -9 -20 -6 -15 4 -24 -2 -35
-23 -17 -32 -10 -44 16 -27 15 9 23 9 39 -1 28 -17 36 -15 63 14 l24 26 39
-34 c22 -18 33 -25 25 -15 -17 21 2 23 19 2 11 -14 15 -14 29 -1 9 8 30 22 46
30 24 13 26 16 10 16 -29 0 -49 34 -29 51 13 10 12 14 -2 31 -11 11 -25 16
-38 13 -12 -3 -15 -2 -8 1 6 3 9 10 6 15 -6 10 -36 -24 -47 -51 -3 -9 -6 -10
-6 -2 -1 10 -5 10 -22 0 -18 -11 -23 -10 -45 15 -22 26 -24 26 -24 7 0 -11 -7
-23 -16 -27 -18 -7 -34 12 -34 42 0 15 -7 20 -27 20 -14 0 -33 -5 -42 -12z
m299 -32 c0 -11 -19 -25 -35 -27 -5 0 -16 -2 -22 -2 -7 -1 -12 -5 -12 -9 3
-20 -2 -34 -11 -28 -5 3 -10 1 -10 -4 0 -6 5 -11 11 -11 5 0 7 -5 3 -12 -5 -8
-14 -3 -29 14 -11 13 -27 22 -35 20 -8 -2 -6 3 5 12 11 8 28 16 37 16 9 0 20
5 23 10 4 6 11 8 16 5 5 -4 9 1 9 9 0 10 9 16 25 16 14 0 25 -4 25 -9z m-183
-38 c-4 -3 0 -14 8 -23 14 -15 14 -18 0 -30 -12 -10 -18 -10 -30 0 -12 10 -12
15 2 36 8 13 18 24 21 24 3 0 2 -3 -1 -7z"/>
<path d="M2258 1258 c-19 -15 -37 -85 -19 -74 6 4 9 12 5 17 -3 6 3 13 15 16
14 4 20 12 19 29 -1 13 -3 24 -3 24 -1 0 -8 -6 -17 -12z"/>
<path d="M2176 1251 c-4 -6 -12 -8 -18 -5 -7 5 -9 1 -5 -9 4 -10 2 -17 -4 -17
-6 0 -9 -7 -5 -15 3 -8 0 -15 -6 -15 -6 0 -8 -3 -5 -6 12 -12 67 50 58 65 -6
9 -11 10 -15 2z"/>
<path d="M2325 1207 c3 -23 6 -60 7 -82 l0 -40 12 42 c6 23 14 45 19 49 4 4 7
20 7 36 0 15 -3 28 -7 29 -5 0 -16 2 -26 4 -17 3 -18 -1 -12 -38z"/>
<path d="M2206 1180 c4 -44 4 -44 -7 -11 -5 18 -13 31 -16 28 -3 -3 -1 -19 5
-35 6 -17 6 -35 1 -43 -6 -10 -10 -5 -15 19 -4 17 -10 32 -15 32 -4 0 -3 -15
3 -32 5 -18 10 -39 11 -47 0 -7 15 -19 32 -27 17 -7 37 -20 44 -28 7 -8 19
-12 28 -9 12 5 9 10 -13 21 -17 9 -24 17 -16 19 28 10 9 24 -25 18 l-38 -5 43
17 c23 9 42 20 42 25 0 4 -16 0 -36 -8 -34 -14 -36 -14 -30 1 3 9 6 19 6 21 0
3 4 2 10 -1 5 -3 25 2 44 12 26 14 33 22 26 32 -7 12 -13 13 -34 3 -23 -10
-27 -9 -40 16 -14 27 -14 26 -10 -18z"/>
<path d="M664 1175 c36 -19 52 -19 36 0 -7 8 -24 15 -39 15 l-26 0 29 -15z"/>
<path d="M2300 1131 c-23 -87 20 -143 61 -78 11 18 22 45 26 60 3 15 15 34 27
42 20 15 20 15 -7 15 -24 0 -31 -7 -48 -45 -11 -25 -24 -45 -29 -45 -5 0 -11
-8 -13 -17 -4 -15 -5 -15 -6 2 0 11 3 34 8 51 5 17 5 37 1 44 -6 9 -12 -1 -20
-29z"/>
<path d="M2441 1148 c-4 -13 -13 -36 -18 -53 -6 -16 -14 -38 -18 -47 -5 -13
-3 -18 7 -18 19 0 80 41 86 58 2 7 -13 1 -34 -13 -20 -14 -39 -23 -41 -21 -8
8 18 46 31 46 21 0 37 25 29 46 -11 27 -32 28 -42 2z"/>
<path d="M308 1092 c-30 -6 -22 -48 11 -62 71 -29 131 -32 131 -6 -1 21 -31
50 -53 51 -13 1 -30 5 -38 10 -17 11 -28 13 -51 7z"/>
<path d="M460 1049 c0 -15 5 -19 15 -15 8 3 27 1 41 -4 14 -6 31 -7 37 -3 7 4
15 8 19 8 3 0 10 3 14 8 8 7 -8 11 -40 7 -11 -1 -15 3 -12 9 4 6 2 11 -3 11
-6 0 -11 -4 -11 -10 0 -5 -9 -10 -20 -10 -11 0 -20 5 -20 10 0 6 -4 10 -10 10
-5 0 -10 -9 -10 -21z"/>
<path d="M660 1054 c0 -10 -7 -14 -22 -12 -16 2 -22 -3 -23 -20 -3 -35 -23
-51 -39 -29 -18 24 -26 21 -26 -9 0 -21 4 -24 20 -19 11 4 20 2 20 -4 0 -6 -7
-11 -15 -11 -18 0 -39 -36 -25 -45 5 -3 10 -11 10 -18 0 -8 -3 -8 -12 1 -14
14 -28 16 -28 4 0 -16 71 -42 115 -42 33 0 45 4 45 15 0 8 -7 15 -15 15 -8 0
-14 5 -12 12 1 8 -9 11 -32 9 -22 -2 -31 1 -27 8 4 6 18 11 31 11 31 0 43 35
21 59 -9 10 -16 24 -16 32 1 8 11 2 25 -16 13 -16 27 -26 31 -22 4 4 -1 14
-12 21 -15 12 -16 17 -7 27 10 10 14 7 22 -14 7 -19 15 -24 30 -20 25 6 27 21
5 30 -8 3 -20 16 -25 29 -10 27 -39 33 -39 8z"/>
<path d="M207 1014 c-2 -26 -9 -49 -13 -53 -13 -9 -47 -72 -41 -77 11 -11 77
103 77 133 0 50 -17 48 -23 -3z"/>
<path d="M2502 1021 l10 -39 39 16 c22 8 38 17 35 19 -2 2 -14 -1 -27 -6 -26
-9 -49 6 -49 34 0 8 -4 15 -9 15 -5 0 -5 -17 1 -39z"/>
<path d="M2471 1037 c-1 -5 4 -28 10 -52 l11 -43 49 20 c27 12 48 23 45 25 -2
2 -19 -2 -38 -10 -38 -16 -48 -10 -66 38 -6 17 -11 26 -11 22z"/>
<path d="M2377 1000 c-16 -19 -16 -22 0 -53 14 -27 18 -29 21 -13 2 11 10 26
18 33 11 12 11 17 -4 33 -9 11 -17 20 -17 20 0 0 -8 -9 -18 -20z"/>
<path d="M2456 973 c9 -21 20 -42 24 -47 9 -9 97 11 105 24 3 5 -16 2 -42 -6
-44 -13 -49 -13 -61 3 -7 10 -15 28 -19 41 -3 12 -9 22 -14 22 -4 0 -1 -17 7
-37z"/>
<path d="M440 982 c0 -5 7 -15 15 -22 8 -7 15 -17 15 -22 0 -15 30 -41 38 -33
10 10 -33 79 -52 83 -9 2 -16 -1 -16 -6z"/>
<path d="M711 942 c-24 -66 -25 -68 -14 -57 12 12 37 84 31 90 -2 3 -10 -12
-17 -33z"/>
<path d="M2020 940 c-18 -26 -19 -31 -6 -36 8 -3 23 -4 33 -1 14 4 13 5 -4 6
-27 1 -28 9 -7 39 8 12 13 22 10 22 -2 0 -14 -14 -26 -30z"/>
<path d="M2433 914 c-7 -15 -10 -24 -6 -21 3 4 13 2 23 -3 17 -9 19 -1 11 43
-2 15 -16 6 -28 -19z"/>
<path d="M2544 906 c-11 -8 -31 -16 -44 -19 -22 -4 -21 -4 6 -6 20 0 38 6 49
19 21 23 17 26 -11 6z"/>
<path d="M180 858 c39 -20 49 -34 43 -57 -3 -11 -2 -50 2 -86 8 -81 30 -100
107 -96 50 2 67 -7 68 -36 0 -17 -60 -41 -144 -59 -87 -19 -119 -41 -135 -96
-15 -49 -24 -361 -12 -405 5 -17 10 53 13 177 7 271 9 276 133 305 39 9 91 23
118 32 45 14 47 16 47 54 0 33 -4 40 -25 45 -14 4 -44 3 -67 0 -29 -5 -47 -2
-65 10 -24 15 -25 19 -21 115 l3 99 -27 0 c-14 0 -35 2 -45 5 -10 3 -7 0 7 -7z"/>
<path d="M2950 573 c-60 -10 -155 -46 -186 -71 -47 -38 -67 -92 -59 -162 6
-55 5 -58 -34 -108 -39 -48 -40 -52 -22 -62 11 -5 32 -10 46 -10 l26 0 -7 -80
c-5 -57 -3 -80 5 -80 7 0 11 27 11 79 0 78 -1 80 -29 97 -30 18 -30 18 -13 48
9 17 20 33 25 34 4 2 7 10 7 18 0 18 7 18 38 -5 37 -25 78 -35 135 -32 31 2
56 -3 72 -13 29 -19 35 -20 35 -3 0 7 -9 18 -21 25 -12 7 -18 16 -15 19 11 11
-14 42 -29 37 -19 -8 -19 -24 0 -24 8 0 15 -3 15 -8 0 -10 -116 -8 -153 2 -32
10 -64 60 -45 72 6 4 19 -3 29 -15 l19 -23 28 21 c29 20 29 20 47 1 17 -19 20
-19 42 -4 19 12 27 13 39 4 18 -15 44 -6 44 16 0 13 -3 14 -14 4 -12 -9 -17
-7 -28 9 l-12 20 -23 -21 -23 -21 -23 21 -24 22 -26 -20 -26 -21 -12 22 c-9
17 -13 19 -20 8 -5 -8 -9 -9 -9 -4 0 6 -4 3 -10 -5 -8 -12 -10 -12 -16 3 -4
11 0 25 11 37 18 20 18 20 33 -2 9 -13 17 -25 19 -27 2 -3 14 6 28 19 l25 23
23 -21 24 -22 18 20 c17 19 19 19 36 4 15 -14 21 -14 34 -4 8 7 15 17 15 23 0
7 -4 7 -12 -1 -10 -10 -16 -8 -28 8 l-16 21 -23 -22 c-13 -12 -26 -18 -30 -13
-3 5 -14 15 -24 23 -15 12 -20 11 -38 -5 -21 -19 -21 -18 -40 5 -11 13 -22 21
-26 17 -3 -3 -2 -6 2 -6 11 0 -27 -29 -38 -30 -12 0 19 53 47 82 15 14 37 28
49 31 21 6 21 6 3 -8 -11 -8 -15 -15 -9 -15 7 0 15 4 18 10 16 26 42 29 64 9
21 -20 23 -20 42 -3 18 16 20 16 39 -1 22 -20 26 -9 6 17 -11 15 -15 15 -40 3
-19 -10 -34 -12 -45 -6 -18 11 -16 12 57 31 62 16 57 24 -8 13z"/>
<path d="M808 495 c18 -8 47 -24 63 -35 16 -12 29 -19 29 -15 0 10 -93 65
-109 65 -9 -1 -1 -7 17 -15z"/>
<path d="M2839 484 c-7 -8 -20 -13 -30 -11 -12 3 -15 0 -11 -15 2 -10 7 -17
11 -16 61 32 63 32 72 15 13 -22 27 -22 52 1 15 12 21 14 24 5 7 -20 43 -16
43 5 0 14 -2 14 -9 3 -7 -11 -11 -10 -22 7 -13 20 -13 20 -40 2 -26 -19 -27
-19 -44 0 -22 24 -29 25 -46 4z"/>
<path d="M2829 293 c-12 -15 -12 -16 7 -11 12 3 29 1 38 -4 20 -11 21 -4 0 16
-20 20 -28 20 -45 -1z"/>
</g>
</svg>
