<?xml version="1.0" standalone="no"?>
<!DOCTYPE svg PUBLIC "-//W3C//DTD SVG 20010904//EN"
 "http://www.w3.org/TR/2001/REC-SVG-20010904/DTD/svg10.dtd">
<svg version="1.0" xmlns="http://www.w3.org/2000/svg"
 width="300.000000pt" height="140.000000pt" viewBox="0 0 300.000000 140.000000"
 preserveAspectRatio="xMidYMid meet">
<metadata>
Created by potrace 1.10, written by Peter Selinger 2001-2011
</metadata>
<g transform="translate(0.000000,140.000000) scale(0.100000,-0.100000)"
fill="#000000" stroke="none">
<path d="M784 1355 c-4 -8 -1 -21 5 -28 8 -10 2 -21 -23 -46 -21 -21 -36 -29
-40 -22 -19 30 -55 8 -156 -94 -87 -88 -110 -105 -135 -105 -23 0 -41 -10 -68
-38 -40 -41 -48 -80 -21 -102 13 -12 7 -22 -53 -82 -53 -53 -65 -70 -55 -80 9
-9 5 -19 -20 -45 l-32 -33 37 -37 37 -37 33 32 c26 25 36 29 45 20 10 -10 27
2 80 55 60 60 70 66 82 53 22 -28 63 -19 103 22 26 27 37 47 37 69 0 33 23 62
35 43 3 -5 15 -10 25 -10 24 0 49 -37 56 -82 11 -63 -26 -123 -144 -240 -90
-89 -113 -107 -146 -111 -21 -4 -48 -15 -60 -26 l-22 -20 -34 31 c-19 18 -79
74 -133 125 -67 62 -107 93 -122 93 -25 0 -85 -45 -85 -63 0 -7 81 -86 179
-177 126 -116 180 -172 180 -187 1 -23 0 -23 -133 -23 -134 0 -135 0 -156 -27
-16 -20 -20 -38 -18 -72 l3 -46 415 0 415 0 0 52 c-1 87 -12 93 -172 93 l-133
0 0 42 c0 40 5 47 128 172 110 111 132 140 152 191 44 116 27 249 -46 355 -19
27 -34 53 -34 58 0 4 14 21 30 37 30 29 38 63 20 81 -7 7 1 21 23 42 29 28 36
31 46 18 13 -16 41 -11 41 7 0 13 -140 157 -153 157 -4 0 -10 -7 -13 -15z m66
-91 c11 -13 9 -20 -18 -47 -30 -30 -33 -30 -49 -14 -16 16 -15 18 12 47 33 34
38 36 55 14z m-73 -182 c-21 -21 -38 -31 -50 -28 -44 11 -106 -50 -91 -89 9
-23 -25 -58 -42 -44 -8 6 -21 8 -30 5 -15 -6 -14 -10 9 -34 34 -35 34 -42 -3
-77 l-31 -29 -86 87 -87 86 29 31 c32 34 47 37 65 15 18 -22 42 -19 38 5 -2
14 27 49 97 120 l100 100 57 -57 58 -57 -33 -34z m-27 -76 c31 -38 -9 -89 -54
-68 -45 20 -30 82 20 82 12 0 27 -7 34 -14z m69 -113 c17 -33 25 -72 28 -123
8 -119 -16 -169 -146 -306 -58 -61 -109 -112 -113 -113 -5 0 -8 8 -8 19 0 11
-10 30 -21 41 l-21 21 110 112 c70 70 119 128 131 156 26 57 27 125 2 174 -16
30 -17 41 -8 52 18 20 21 18 46 -33z m-394 -53 l29 -31 -52 -52 -52 -52 -32
33 -32 32 49 50 c27 27 52 50 55 50 4 0 19 -14 35 -30z m-125 -128 c0 -14 -39
-46 -47 -39 -3 4 2 16 12 27 19 21 35 26 35 12z m-98 -190 c56 -54 118 -110
137 -125 23 -19 35 -38 36 -58 2 -16 -1 -29 -5 -27 -4 2 -75 66 -158 143 -111
104 -147 143 -140 153 6 6 14 12 18 12 5 0 55 -44 112 -98z m307 -117 c16 -8
31 -22 35 -30 10 -26 7 -163 -3 -167 -5 -1 -11 -10 -13 -18 -2 -13 22 -16 157
-20 l160 -5 3 -32 3 -33 -376 0 -375 0 6 28 c4 15 9 30 11 35 2 4 75 7 162 7
87 0 160 3 164 6 9 10 -4 34 -19 34 -17 0 -20 140 -3 171 8 16 34 34 57 38 2
1 16 -6 31 -14z"/>
<path d="M647 1151 c-33 -32 -45 -51 -37 -56 13 -8 60 32 60 52 0 7 6 13 14
13 19 0 31 19 20 30 -5 5 -30 -13 -57 -39z"/>
<path d="M507 973 c-3 -5 -2 -15 3 -22 10 -17 43 -6 38 12 -6 15 -34 22 -41
10z"/>
<path d="M454 345 c-8 -20 4 -35 26 -35 23 0 32 13 24 34 -8 20 -43 21 -50 1z"/>
<path d="M465 200 c-4 -7 -3 -16 3 -22 14 -14 45 -2 40 15 -6 16 -34 21 -43 7z"/>
<path d="M1600 1088 c-80 -41 -110 -137 -71 -224 28 -61 73 -89 143 -89 61 0
94 17 132 69 30 39 30 153 0 192 -53 71 -129 91 -204 52z m142 -38 c36 -28 51
-72 46 -132 -7 -72 -47 -108 -119 -108 -42 0 -55 5 -79 28 -53 53 -52 149 1
202 26 25 38 30 78 30 33 0 56 -6 73 -20z"/>
<path d="M2451 1088 c-56 -29 -81 -74 -81 -146 0 -100 48 -158 137 -168 59 -6
109 17 136 64 l19 32 -26 0 c-14 0 -26 -4 -26 -10 0 -25 -45 -50 -89 -50 -75
1 -111 42 -111 130 0 89 37 130 120 130 30 0 43 -6 62 -28 42 -51 78 -51 52
-1 -33 64 -120 85 -193 47z"/>
<path d="M980 941 c0 -150 1 -159 20 -164 19 -5 20 0 20 64 l0 69 45 0 c61 0
113 23 125 55 17 45 11 75 -19 106 -28 27 -34 29 -110 29 l-81 0 0 -159z m158
113 c26 -18 30 -65 6 -88 -9 -9 -32 -16 -54 -16 -21 0 -45 -3 -54 -6 -14 -5
-16 4 -16 60 l0 66 48 0 c27 0 57 -7 70 -16z"/>
<path d="M1250 940 c0 -153 1 -160 20 -160 18 0 20 7 20 65 l0 65 33 0 c31 0
35 -4 63 -61 25 -54 56 -84 75 -73 4 2 -9 33 -28 69 l-34 65 30 26 c26 22 31
33 31 70 0 36 -5 50 -26 69 -24 22 -36 25 -105 25 l-79 0 0 -160z m148 114
c15 -10 22 -25 22 -49 0 -43 -29 -65 -87 -65 l-43 0 0 65 0 65 43 0 c23 0 53
-7 65 -16z"/>
<path d="M2010 967 c0 -146 -4 -157 -56 -157 -27 0 -34 5 -43 31 -12 35 -49
38 -43 4 10 -59 72 -90 131 -65 43 17 51 47 51 190 0 123 -1 130 -20 130 -19
0 -20 -7 -20 -133z"/>
<path d="M2120 940 l0 -160 100 0 c82 0 100 3 100 15 0 12 -16 15 -80 15 l-80
0 0 60 0 60 72 -2 c63 -3 73 -1 76 15 3 17 -3 18 -72 15 l-76 -3 0 58 0 57 80
0 c64 0 80 3 80 15 0 12 -18 15 -100 15 l-100 0 0 -160z"/>
<path d="M2690 1085 c0 -11 12 -15 50 -15 l50 0 0 -145 c0 -138 1 -145 20
-145 19 0 20 7 20 145 l0 145 50 0 c38 0 50 4 50 15 0 13 -20 15 -120 15 -100
0 -120 -2 -120 -15z"/>
<path d="M1009 641 c-34 -35 -39 -81 -10 -110 11 -11 47 -29 80 -41 60 -22 79
-43 72 -80 -10 -60 -141 -46 -141 15 0 8 -9 15 -20 15 -26 0 -26 -29 0 -63 63
-80 205 -42 202 55 -1 41 -24 64 -91 89 -31 11 -61 25 -68 31 -22 18 -15 56
13 74 32 21 74 10 89 -24 12 -27 56 -32 48 -4 -19 73 -119 98 -174 43z"/>
<path d="M1250 505 c0 -158 1 -165 20 -165 18 0 20 7 20 75 l0 75 86 0 86 0
-4 -75 c-3 -72 -2 -75 20 -75 l22 0 -2 163 c-3 152 -4 162 -22 162 -18 0 -19
-7 -17 -72 l2 -73 -85 0 -86 0 0 75 c0 68 -2 75 -20 75 -19 0 -20 -7 -20 -165z"/>
<path d="M1645 656 c-73 -32 -111 -124 -85 -209 32 -109 163 -147 255 -75 56
44 71 138 34 214 -34 71 -128 103 -204 70z m128 -38 c51 -26 73 -128 42 -188
-28 -55 -105 -76 -164 -45 -61 31 -79 143 -34 204 34 45 101 57 156 29z"/>
<path d="M1930 503 c0 -158 1 -163 21 -163 19 0 20 5 18 63 -2 67 -2 67 39 67
24 0 32 -8 60 -65 23 -48 37 -65 52 -65 26 0 26 3 -14 75 l-33 61 28 16 c32
19 44 53 35 102 -9 48 -39 64 -129 68 l-77 3 0 -162z m152 110 c21 -19 24 -62
4 -88 -10 -14 -27 -19 -66 -20 l-52 0 -1 63 -2 62 49 0 c32 0 56 -6 68 -17z"/>
<path d="M2180 648 c0 -15 9 -18 50 -18 l50 0 0 -145 c0 -140 1 -145 21 -145
20 0 20 4 17 145 l-3 145 48 0 c38 0 47 3 47 18 0 15 -12 17 -115 17 -103 0
-115 -2 -115 -17z"/>
</g>
</svg>
