<?xml version="1.0" standalone="no"?>
<!DOCTYPE svg PUBLIC "-//W3C//DTD SVG 20010904//EN"
 "http://www.w3.org/TR/2001/REC-SVG-20010904/DTD/svg10.dtd">
<svg version="1.0" xmlns="http://www.w3.org/2000/svg"
 width="300.000000pt" height="300.000000pt" viewBox="0 0 300.000000 300.000000"
 preserveAspectRatio="xMidYMid meet">
<metadata>
Created by potrace 1.10, written by Peter Selinger 2001-2011
</metadata>
<g transform="translate(0.000000,300.000000) scale(0.100000,-0.100000)"
fill="#000000" stroke="none">
<path d="M1256 2964 c-401 -72 -762 -340 -949 -701 -58 -112 -111 -269 -132
-387 -20 -116 -20 -356 0 -472 72 -411 347 -779 728 -970 176 -89 379 -134
602 -134 168 0 279 17 425 66 456 153 792 531 891 1007 31 146 30 389 0 537
-114 543 -544 960 -1087 1055 -110 19 -370 18 -478 -1z m443 -30 c521 -76 945
-465 1078 -989 26 -103 28 -123 27 -310 -1 -190 -2 -206 -31 -315 -64 -241
-175 -434 -347 -605 -191 -189 -414 -308 -678 -362 -129 -26 -382 -23 -518 6
-452 97 -826 429 -970 859 -51 155 -65 241 -65 422 0 181 14 267 65 422 154
460 573 806 1063 877 100 14 262 12 376 -5z"/>
<path d="M1505 2690 c-10 -11 -24 -20 -31 -20 -30 0 -29 -21 6 -90 9 -18 85
-23 98 -7 5 7 12 25 16 41 6 26 5 28 -8 17 -9 -7 -14 -22 -13 -34 2 -19 -3
-21 -43 -21 -39 -1 -45 2 -45 21 -1 11 -6 28 -13 36 -11 13 -10 18 10 28 13 7
29 19 35 28 12 14 15 14 30 -5 20 -24 53 -38 53 -24 0 6 -6 10 -13 10 -8 0
-22 9 -32 20 -10 11 -21 20 -25 20 -4 0 -15 -9 -25 -20z"/>
<path d="M1847 2690 c-13 -15 -14 -20 -3 -20 8 0 16 7 20 15 6 17 36 21 36 5
0 -6 11 -15 25 -20 26 -10 32 -24 15 -35 -5 -3 -10 -19 -10 -34 0 -26 -2 -27
-51 -27 -47 0 -50 1 -46 23 2 13 -2 28 -10 35 -8 6 -11 18 -8 27 4 11 3 13 -4
6 -8 -8 -7 -21 1 -45 6 -19 12 -40 14 -47 2 -7 22 -11 56 -10 48 2 53 5 56 27
2 14 8 29 13 35 17 18 9 45 -15 51 -14 3 -27 12 -30 20 -8 20 -39 17 -59 -6z"/>
<path d="M1636 2560 c-100 -89 -103 -254 -5 -347 19 -18 51 -39 71 -47 48 -20
138 -20 186 0 36 15 102 70 102 85 0 5 -15 -7 -33 -26 -48 -49 -105 -69 -183
-62 -117 9 -195 88 -202 203 -5 69 6 109 45 161 28 38 70 66 60 39 -4 -9 -2
-16 3 -16 13 0 13 27 1 35 -6 3 -26 -8 -45 -25z"/>
<path d="M1674 2495 c5 -90 67 -180 145 -212 45 -19 129 -27 159 -16 16 6 1 9
-50 9 -134 0 -216 70 -245 208 l-13 61 4 -50z"/>
<path d="M1952 2493 c9 -25 18 -32 44 -35 18 -2 30 0 28 4 -3 4 -14 8 -24 8
-10 0 -28 12 -39 28 l-20 27 11 -32z"/>
<path d="M1893 2490 c-7 -10 -23 -20 -35 -22 -28 -4 -36 -39 -13 -58 8 -7 15
-27 15 -46 0 -40 11 -48 44 -33 20 10 32 9 53 0 14 -7 30 -8 34 -4 14 14 -76
21 -103 9 -16 -7 -18 -3 -18 32 0 23 -6 45 -15 52 -25 21 -18 40 14 40 21 0
32 6 36 21 9 27 2 33 -12 9z"/>
<path d="M880 2339 c-62 -36 -109 -128 -96 -190 5 -26 1 -30 -37 -47 -23 -11
-59 -33 -79 -48 -42 -32 -128 -141 -128 -163 0 -9 -6 -11 -17 -6 -66 26 -154
11 -207 -36 -73 -64 -86 -186 -28 -258 52 -65 76 -76 160 -77 l77 -1 21 -49
c18 -41 21 -62 16 -131 -4 -74 -2 -87 22 -137 30 -62 77 -92 125 -81 22 5 40
-1 77 -24 26 -17 56 -31 66 -31 20 0 25 -20 6 -20 -17 -1 -64 -37 -57 -44 3
-4 28 4 55 16 129 58 302 -1 369 -126 21 -39 41 -48 32 -16 -3 11 -4 20 -4 20
1 0 29 -11 62 -25 50 -20 77 -25 162 -25 95 0 105 2 164 33 41 21 75 48 97 77
l35 45 61 -4 c33 -2 64 -8 68 -15 12 -22 54 -61 68 -64 82 -19 141 -23 234
-18 104 5 112 7 190 50 44 24 99 47 121 50 65 11 145 48 145 66 0 9 -12 26
-26 39 -19 17 -23 25 -15 35 21 25 -14 126 -43 126 -7 0 -26 15 -43 33 -28 29
-31 38 -31 92 0 70 -30 160 -70 206 l-26 31 21 17 c60 47 11 153 -75 163 -52
6 -78 -1 -109 -29 -22 -22 -38 -26 -92 -27 -74 -2 -128 -25 -175 -75 -17 -17
-37 -31 -47 -31 -34 0 -63 -35 -68 -85 -7 -55 -34 -82 -94 -92 -36 -5 -37 -5
-37 26 0 89 -28 139 -122 213 -18 14 -44 48 -58 75 -14 26 -37 66 -51 88 -15
22 -29 50 -33 62 -9 28 -84 96 -136 123 -23 12 -56 20 -73 19 -18 -1 -47 1
-65 6 -28 7 -33 11 -27 29 24 75 13 135 -38 192 -43 50 -77 64 -149 64 -45 0
-73 -6 -98 -21z m163 -13 c44 -18 95 -78 103 -121 8 -46 -3 -105 -21 -105 -11
0 -12 6 -3 30 33 95 -56 191 -164 177 -77 -10 -143 -95 -123 -157 4 -14 2 -20
-9 -20 -12 0 -16 10 -16 35 0 120 125 207 233 161z m-8 -47 c48 -18 79 -69 72
-120 -3 -22 -8 -43 -11 -47 -4 -3 -33 -1 -64 6 -32 7 -86 12 -120 12 l-62 0 0
31 c0 41 38 109 61 109 10 0 21 5 24 10 8 13 61 13 100 -1z m74 -204 l84 -27
-53 -29 c-69 -38 -122 -82 -253 -208 -122 -119 -215 -233 -268 -327 l-36 -64
-32 70 c-62 137 -61 235 4 366 58 118 134 191 243 235 66 27 197 20 311 -16z
m234 -67 c45 -28 87 -71 87 -88 0 -4 -33 -33 -74 -63 -164 -123 -412 -403
-546 -614 -63 -99 -66 -102 -101 -103 -46 0 -86 30 -110 84 -28 61 -24 106 17
192 116 245 542 654 654 628 14 -3 46 -19 73 -36z m160 -211 c49 -89 70 -113
133 -156 47 -33 64 -77 64 -168 0 -96 -63 -276 -101 -288 -11 -4 -56 -36 -101
-72 l-83 -65 -75 8 c-79 9 -127 10 -225 3 -33 -2 -97 2 -141 8 -83 12 -194 54
-194 72 0 19 149 231 234 335 46 56 125 143 176 194 99 100 248 224 261 216 4
-2 28 -41 52 -87z m-999 67 c9 -3 16 -13 16 -21 0 -11 -5 -13 -17 -7 -38 18
-101 10 -129 -16 -55 -51 -68 -123 -33 -191 26 -51 85 -82 133 -68 39 11 36
12 36 -5 0 -19 -56 -28 -101 -16 -47 13 -102 59 -119 100 -17 42 -8 121 19
159 40 55 136 88 195 65z m-11 -74 c-1 -29 -8 -141 -12 -199 -2 -23 -78 -7
-101 21 -26 30 -42 91 -34 124 4 14 22 42 41 61 29 28 41 34 71 31 35 -3 37
-5 35 -38z m1891 -32 c18 -7 28 -22 32 -45 9 -45 -16 -73 -65 -73 -59 0 -79
10 -97 48 -17 36 -17 36 10 59 30 25 79 30 120 11z m-167 -58 c3 -11 10 -20
15 -20 5 0 7 -4 4 -9 -7 -11 27 -41 51 -46 10 -2 18 -4 18 -5 0 -2 17 -4 38
-5 43 -3 56 -16 95 -95 23 -47 27 -68 27 -145 0 -81 -3 -95 -28 -137 -15 -27
-32 -48 -37 -48 -13 0 -13 17 0 25 18 11 11 98 -10 133 -36 58 -73 74 -169 69
-81 -3 -83 -3 -62 14 11 9 21 20 21 23 0 15 -22 3 -53 -28 l-34 -34 -39 59
c-45 70 -102 114 -139 107 -19 -4 -25 -1 -25 11 0 40 56 55 98 25 12 -8 22
-11 22 -5 0 5 -10 17 -22 25 -21 15 -21 16 -3 35 55 62 220 98 232 51z m-256
-183 c19 -12 52 -48 73 -80 l40 -57 -25 -17 c-90 -61 -161 -185 -163 -285 l-1
-60 -44 6 c-25 3 -46 8 -48 10 -2 2 1 15 6 29 18 46 -7 40 -28 -7 -24 -56 -93
-132 -142 -156 -80 -41 -211 -43 -309 -4 -55 22 -120 61 -120 73 0 5 -16 19
-35 32 -19 13 -35 28 -35 33 0 8 144 3 245 -10 l50 -6 85 71 c47 38 101 78
121 88 24 11 37 25 37 38 0 11 12 52 26 90 14 39 26 82 26 98 0 22 4 27 25 27
37 0 119 44 146 79 13 16 27 30 30 30 3 1 21 -9 40 -22z m343 -131 c49 -20 76
-60 76 -113 0 -65 -13 -83 -54 -76 -39 6 -138 -20 -156 -42 -16 -19 -2 -19 46
1 30 13 60 15 127 11 86 -4 89 -4 97 19 16 41 50 29 78 -27 9 -19 26 -36 37
-38 11 -2 34 -16 51 -30 l30 -27 -41 -18 c-23 -9 -60 -19 -81 -22 -21 -3 -84
-28 -139 -56 l-100 -50 -106 0 c-165 0 -225 24 -250 100 -15 44 -6 122 21 176
71 147 248 241 364 192z m226 -127 c8 -14 24 -39 35 -57 11 -17 23 -32 28 -32
4 0 7 -4 7 -10 0 -5 -11 -10 -24 -10 -17 0 -30 11 -45 36 -12 20 -30 38 -40
41 -16 4 -17 9 -8 34 13 33 25 33 47 -2z"/>
<path d="M1295 1691 c-39 -23 -69 -67 -54 -77 6 -4 22 7 36 25 14 17 41 40 61
51 34 17 35 19 12 20 -14 0 -39 -8 -55 -19z"/>
<path d="M1496 1555 c-9 -46 -28 -70 -71 -93 -18 -9 -25 -17 -17 -20 20 -6 91
45 98 72 3 13 4 37 2 52 -3 27 -4 26 -12 -11z"/>
<path d="M1016 1351 c-23 -26 -36 -75 -27 -108 8 -28 8 -27 15 11 4 21 18 56
32 77 26 42 12 56 -20 20z"/>
<path d="M1420 1316 c0 -8 -10 -22 -22 -30 -12 -9 -19 -18 -16 -22 8 -7 58 41
58 56 0 5 -4 10 -10 10 -5 0 -10 -6 -10 -14z"/>
<path d="M1490 1275 c-7 -21 -26 -45 -46 -59 -40 -27 -34 -43 8 -18 24 14 68
82 68 105 0 21 -20 2 -30 -28z"/>
<path d="M1243 1246 c1 -40 -20 -68 -64 -86 -16 -7 -29 -16 -29 -21 0 -28 84
23 98 59 16 40 18 75 5 79 -7 3 -11 -9 -10 -31z"/>
<path d="M2008 2182 c-7 -9 -25 -23 -40 -29 -31 -14 -36 -34 -14 -53 8 -6 17
-21 19 -33 3 -18 5 -17 6 6 0 16 -5 30 -14 33 -25 10 -17 34 14 40 17 4 33 16
40 30 13 28 8 31 -11 6z"/>
<path d="M2054 2181 c15 -25 76 -57 76 -42 0 5 -12 12 -26 15 -15 4 -35 17
-46 29 l-20 22 16 -24z"/>
<path d="M1502 2170 c-12 -10 -28 -20 -35 -23 -9 -3 -9 -9 0 -28 6 -13 14 -31
16 -39 4 -10 6 -8 6 6 1 11 -4 25 -10 31 -13 13 -4 33 16 33 8 0 19 9 25 20
13 24 11 24 -18 0z"/>
<path d="M1587 2113 c-4 -3 -7 -17 -7 -31 0 -21 -4 -23 -24 -18 -13 3 -35 2
-48 -3 -18 -6 -12 -8 27 -7 47 1 49 2 56 34 7 34 6 36 -4 25z"/>
<path d="M2107 2102 c-10 -10 -17 -31 -17 -45 0 -28 -18 -35 -37 -16 -8 8 -17
8 -33 -1 -12 -6 -28 -9 -36 -6 -8 3 -14 2 -14 -3 0 -5 29 -8 65 -8 l65 0 0 30
c0 17 7 39 17 49 9 10 14 18 11 18 -3 0 -12 -8 -21 -18z"/>
<path d="M1052 743 c-5 -10 -12 -57 -16 -105 -5 -66 -3 -95 8 -122 16 -38 59
-66 101 -66 53 0 116 53 127 105 3 16 7 12 23 -20 11 -22 35 -50 54 -62 58
-39 162 -25 160 21 -1 15 -2 17 -6 4 -6 -23 -57 -42 -99 -35 -116 19 -150 148
-64 241 37 39 41 41 97 41 32 0 67 -4 78 -9 15 -7 17 -6 9 3 -15 16 -76 25
-118 17 -34 -7 -87 -49 -113 -91 -12 -18 -12 -18 -7 6 3 15 1 29 -4 33 -5 3
-12 -29 -15 -74 -8 -96 -27 -137 -72 -156 -51 -21 -81 -17 -115 14 -31 27 -31
28 -31 128 0 55 3 108 6 117 4 9 21 18 38 20 l32 4 -32 1 c-22 1 -35 -4 -41
-15z"/>
<path d="M1555 751 c-12 -21 -33 -273 -21 -260 2 2 7 42 11 89 4 47 9 94 10
105 1 11 3 30 4 43 1 18 7 22 31 22 l30 0 -5 -72 c-3 -40 -8 -91 -10 -113 l-4
-40 55 3 55 4 -7 -29 c-11 -44 -1 -28 77 122 39 77 67 136 61 130 -6 -5 -35
-57 -65 -115 -30 -58 -57 -104 -61 -102 -3 1 -27 2 -52 2 l-46 0 3 108 4 107
-32 3 c-17 2 -34 -2 -38 -7z"/>
<path d="M1876 715 c36 -111 58 -172 76 -210 23 -50 20 -37 -32 116 -24 68
-46 128 -51 134 -5 5 -2 -13 7 -40z"/>
<path d="M1205 728 c-2 -7 -6 -49 -10 -93 -7 -86 -20 -111 -53 -101 -19 6 -20
13 -16 96 2 50 0 90 -5 90 -12 0 -20 -161 -9 -182 11 -22 51 -23 71 -3 9 9 18
43 22 82 3 38 8 80 10 96 5 27 -2 38 -10 15z"/>
<path d="M1521 692 c-1 -32 -2 -33 -23 -18 -35 25 -90 20 -118 -8 -32 -35 -33
-101 -1 -127 30 -25 73 -24 102 1 l24 21 -32 -16 c-18 -8 -42 -13 -55 -11 -13
3 -26 5 -30 5 -3 1 -10 13 -15 29 -12 33 0 82 24 99 24 18 79 16 98 -3 22 -22
38 -6 32 32 -4 28 -4 28 -6 -4z"/>
<path d="M1827 605 c-22 -46 -22 -45 13 -45 33 0 34 1 16 48 l-12 33 -17 -36z"/>
<path d="M1775 490 c-6 -18 -15 -20 -115 -20 -62 0 -111 -4 -115 -10 -7 -12
204 -14 221 -2 6 4 13 15 17 25 8 22 97 25 97 3 0 -8 4 -17 9 -20 4 -3 6 6 3
19 -4 23 -9 25 -57 25 -45 0 -55 -3 -60 -20z"/>
<path d="M770 248 c-1 -2 -2 -54 -3 -116 l-2 -112 67 0 c58 0 69 3 82 22 22
30 20 54 -5 79 -16 16 -18 23 -9 34 19 23 8 68 -20 82 -21 11 -109 19 -110 11z
m74 -44 c29 -11 14 -54 -20 -54 -2 0 -4 14 -4 30 0 32 1 33 24 24z m23 -110
c4 -11 -1 -22 -12 -30 -28 -21 -35 -17 -35 16 0 23 4 30 20 30 11 0 23 -7 27
-16z"/>
<path d="M1025 238 c-20 -59 -65 -207 -65 -217 0 -21 44 -7 55 16 13 31 75 33
75 3 0 -20 39 -38 58 -26 5 3 -8 56 -28 118 -33 105 -38 113 -63 116 -16 2
-29 -2 -32 -10z m33 -136 c-28 -5 -29 -1 -15 43 l12 39 11 -39 c10 -36 9 -40
-8 -43z"/>
<path d="M1197 243 c-4 -3 -7 -55 -7 -115 l0 -108 64 0 c45 0 69 5 80 16 21
20 21 80 0 92 -13 7 -14 12 -4 29 18 28 5 67 -25 81 -28 13 -97 16 -108 5z
m93 -62 c0 -13 -28 -33 -38 -27 -7 4 -8 35 -3 54 2 6 41 -19 41 -27z m5 -95
c0 -10 -10 -22 -21 -27 -19 -6 -23 -3 -26 22 -4 27 -2 30 21 27 18 -2 26 -9
26 -22z"/>
<path d="M1370 245 c0 -3 16 -37 35 -75 25 -49 35 -83 35 -115 0 -45 1 -46 28
-43 25 3 27 6 24 39 -2 27 7 58 37 118 l41 81 -30 0 c-27 0 -33 -6 -52 -47
l-20 -48 -20 48 c-18 41 -24 47 -49 47 -16 0 -29 -2 -29 -5z"/>
<path d="M1690 248 c-1 -2 -2 -54 -3 -116 l-2 -112 68 0 c66 0 67 0 67 26 0
25 -2 26 -40 21 l-40 -5 0 94 c0 94 0 94 -25 94 -14 0 -25 -1 -25 -2z"/>
<path d="M1880 143 c-18 -60 -35 -114 -38 -121 -3 -10 3 -13 24 -10 21 2 30 9
32 25 3 19 10 23 38 23 28 0 36 -5 44 -25 7 -18 17 -25 35 -25 14 0 25 3 25 6
0 3 -16 57 -36 120 -34 110 -36 114 -63 114 -27 0 -29 -4 -61 -107z m70 20 c0
-10 3 -28 6 -40 5 -19 2 -23 -16 -23 -18 0 -21 4 -16 23 3 12 6 30 6 40 0 9 5
17 10 17 6 0 10 -8 10 -17z"/>
<path d="M2080 136 l0 -116 64 0 c56 0 67 3 80 22 22 31 20 64 -5 81 -13 9
-16 17 -10 22 17 10 13 71 -5 86 -8 7 -40 14 -70 17 l-54 4 0 -116z m74 68
c29 -11 14 -54 -20 -54 -2 0 -4 14 -4 30 0 32 1 33 24 24z m24 -120 c2 -14 -3
-23 -17 -27 -25 -6 -31 0 -31 30 0 20 5 24 23 21 13 -2 23 -11 25 -24z"/>
<path d="M480 140 c0 -6 38 -10 95 -10 57 0 95 4 95 10 0 6 -38 10 -95 10 -57
0 -95 -4 -95 -10z"/>
<path d="M2330 140 c0 -6 38 -10 94 -10 53 0 98 4 101 10 4 6 -30 10 -94 10
-61 0 -101 -4 -101 -10z"/>
</g>
</svg>
