<?xml version="1.0" standalone="no"?>
<!DOCTYPE svg PUBLIC "-//W3C//DTD SVG 20010904//EN"
 "http://www.w3.org/TR/2001/REC-SVG-20010904/DTD/svg10.dtd">
<svg version="1.0" xmlns="http://www.w3.org/2000/svg"
 width="300.000000pt" height="57.000000pt" viewBox="0 0 300.000000 57.000000"
 preserveAspectRatio="xMidYMid meet">
<metadata>
Created by potrace 1.10, written by Peter Selinger 2001-2011
</metadata>
<g transform="translate(0.000000,57.000000) scale(0.100000,-0.100000)"
fill="#000000" stroke="none">
<path d="M10 549 c0 -4 10 -9 23 -11 22 -3 22 -6 27 -168 5 -173 11 -197 54
-225 33 -22 113 -29 164 -16 73 20 82 47 82 232 0 160 4 179 42 179 10 0 18 4
18 9 0 5 -34 9 -75 9 -41 0 -75 -4 -75 -9 0 -5 9 -9 20 -9 32 0 40 -33 40
-172 0 -107 -4 -140 -18 -168 -22 -44 -72 -64 -126 -49 -59 16 -67 43 -64 226
l3 158 28 3 c15 2 27 7 27 11 0 5 -38 8 -85 8 -47 -1 -85 -4 -85 -8z"/>
<path d="M501 543 c-49 -26 -70 -59 -81 -128 -19 -117 20 -234 90 -270 66 -34
201 -28 208 9 3 15 1 16 -16 7 -31 -17 -103 -13 -142 7 -55 27 -80 87 -80 192
0 133 38 186 125 176 42 -5 95 -51 95 -81 0 -8 5 -15 11 -15 8 0 10 16 6 51
-4 29 -8 54 -11 56 -3 3 -42 7 -88 10 -67 3 -90 1 -117 -14z"/>
<path d="M893 546 c-41 -19 -67 -68 -59 -112 8 -38 46 -73 118 -110 27 -14 58
-34 68 -44 28 -28 26 -75 -5 -105 -41 -42 -135 -29 -161 23 -20 39 -24 37 -24
-16 l0 -50 63 -7 c118 -13 207 34 207 110 0 61 -22 87 -110 135 -46 24 -89 55
-97 67 -34 51 23 111 94 100 41 -7 61 -22 76 -57 11 -24 12 -23 15 19 2 23 0
46 -3 49 -14 14 -150 12 -182 -2z"/>
<path d="M1736 550 c5 -4 18 -10 29 -12 19 -3 20 -12 23 -187 3 -192 0 -206
-41 -215 -12 -2 37 -4 108 -3 110 2 135 5 165 22 53 31 82 97 82 187 -1 110
-29 164 -100 195 -36 15 -281 28 -266 13z m242 -40 c45 -28 62 -73 62 -167 0
-126 -45 -186 -137 -187 l-48 -1 -3 188 -2 187 47 0 c30 0 60 -7 81 -20z"/>
<path d="M2164 495 c-7 -17 12 -45 31 -45 19 0 36 25 29 44 -8 20 -53 21 -60
1z"/>
<path d="M2693 412 c-15 -27 -19 -28 -53 -19 -30 8 -44 7 -76 -9 -50 -24 -66
-73 -41 -123 13 -26 14 -37 5 -57 -9 -19 -9 -30 0 -45 10 -16 9 -22 -8 -39
-43 -43 -11 -99 62 -107 101 -12 168 24 168 90 0 52 -23 66 -115 69 -75 3 -80
4 -83 27 -3 21 -1 23 35 17 59 -8 106 12 119 54 8 23 8 44 2 65 -17 54 -15 60
17 60 23 0 31 5 33 23 5 35 -44 31 -65 -6z m-43 -52 c29 -29 27 -94 -2 -114
-48 -34 -88 -6 -88 60 0 68 47 97 90 54z m60 -245 c16 -19 4 -52 -25 -71 -33
-21 -101 -21 -125 1 -19 17 -27 65 -13 78 3 4 39 7 78 7 51 0 76 -4 85 -15z"/>
<path d="M1180 383 c-45 -23 -55 -63 -16 -63 18 0 26 5 26 18 0 23 19 42 41
42 29 0 49 -29 49 -71 0 -37 -2 -39 -30 -39 -97 0 -155 -81 -94 -129 34 -26
64 -27 97 -1 l26 21 11 -21 c7 -13 21 -20 40 -20 35 0 49 17 18 22 -22 3 -23
7 -25 107 -1 87 -5 107 -20 123 -28 28 -81 32 -123 11z m100 -156 c0 -41 -25
-77 -54 -77 -28 0 -46 18 -46 46 0 25 18 42 57 54 42 13 43 12 43 -23z"/>
<path d="M1423 393 c-45 -4 -57 -17 -23 -26 18 -5 20 -14 20 -111 0 -101 -1
-107 -22 -116 -17 -6 -5 -9 47 -9 48 0 64 3 49 9 -28 11 -32 25 -29 92 4 65
26 115 60 130 48 22 55 8 55 -107 0 -100 -1 -106 -22 -115 -17 -6 -5 -9 47 -9
51 0 64 3 48 9 -28 11 -32 31 -36 145 -2 85 -3 90 -29 104 -24 14 -30 14 -61
-1 -20 -9 -38 -26 -42 -37 -11 -36 -28 -24 -21 14 4 19 6 34 4 33 -2 -1 -22
-3 -45 -5z"/>
<path d="M2180 392 c-36 -4 -68 -22 -37 -22 25 0 32 -27 31 -115 -2 -109 -1
-105 -26 -115 -17 -6 -5 -9 47 -9 44 0 63 3 50 8 -18 7 -20 20 -25 132 l-5
124 -35 -3z"/>
<path d="M2323 385 c-17 -7 -36 -22 -41 -32 -31 -61 -20 -158 24 -198 29 -26
89 -40 134 -30 40 9 38 25 -2 19 -61 -9 -128 57 -128 126 0 19 6 20 86 20 94
0 87 -6 68 61 -6 21 -59 49 -91 49 -10 -1 -32 -7 -50 -15z m79 -17 c9 -7 19
-23 23 -35 6 -22 4 -23 -54 -23 -67 0 -75 9 -39 47 24 26 46 29 70 11z"/>
<path d="M2823 385 c-41 -18 -63 -61 -63 -127 0 -70 26 -113 78 -129 87 -26
152 29 152 129 0 67 -22 110 -65 128 -42 17 -61 17 -102 -1z m100 -37 c29 -39
30 -136 1 -175 -29 -39 -66 -41 -93 -7 -17 21 -21 41 -21 96 0 60 3 72 25 94
31 31 61 28 88 -8z"/>
<path d="M10 20 c0 -7 419 -10 1236 -10 821 0 1233 3 1229 10 -9 14 -2465 14
-2465 0z"/>
<path d="M2755 20 c-4 -6 37 -10 114 -10 74 0 121 4 121 10 0 6 -45 10 -114
10 -66 0 -117 -4 -121 -10z"/>
</g>
</svg>
